<svg xmlns="http://www.w3.org/2000/svg" xmlns:xlink="http://www.w3.org/1999/xlink" width="500" zoomAndPan="magnify" viewBox="0 0 375 374.999991" height="500" preserveAspectRatio="xMidYMid meet" version="1.0"><defs><clipPath id="c3dc288212"><path d="M 312 135 L 356.828125 135 L 356.828125 175 L 312 175 Z M 312 135 " clip-rule="nonzero"/></clipPath><clipPath id="63ce59a899"><path d="M 70 346 L 95 346 L 95 374.25 L 70 374.25 Z M 70 346 " clip-rule="nonzero"/></clipPath></defs><path fill="#ffffff" d="M 54.835938 60.523438 C 52.878906 57.863281 51.796875 54.539062 51.960938 51.203125 C 52 50.1875 52.164062 49.21875 52.324219 48.265625 C 52.511719 46.960938 52.714844 45.734375 52.613281 44.554688 C 52.464844 42.660156 51.472656 40.855469 50.003906 39.648438 C 49.902344 41.542969 49.640625 43.449219 49.164062 45.355469 C 48.914062 46.359375 48.574219 47.414062 48.261719 48.441406 C 47.34375 51.367188 46.46875 54.101562 47.28125 56.320312 C 48.273438 58.992188 51.484375 60.257812 54.835938 60.523438 " fill-opacity="1" fill-rule="nonzero"/><path fill="#ffffff" d="M 85.628906 65.980469 C 86.746094 64.9375 87.675781 63.621094 88.488281 62.230469 C 90.847656 58.300781 92.792969 54.113281 94.273438 49.796875 C 91.664062 48.394531 89.042969 46.960938 86.46875 45.558594 C 86.382812 45.507812 86.320312 45.457031 86.246094 45.417969 C 86.144531 45.355469 86.03125 45.320312 85.929688 45.230469 C 85.832031 45.179688 85.753906 45.117188 85.667969 45.03125 L 77.050781 60.210938 C 80.335938 61.515625 83.109375 63.710938 85.628906 65.980469 " fill-opacity="1" fill-rule="nonzero"/><path fill="#ffffff" d="M 71.117188 50.839844 C 71.378906 52.332031 71.757812 53.171875 72.246094 53.324219 C 72.785156 53.523438 73.714844 52.933594 74.804688 51.71875 C 78.179688 47.929688 81.453125 43.964844 84.5 39.9375 C 84.625 39.761719 84.800781 39.625 84.976562 39.511719 C 84.601562 38.683594 83.910156 37.855469 83.132812 37.339844 C 81.792969 36.488281 80.074219 36 78.277344 35.472656 C 77.1875 35.160156 76.070312 34.84375 74.96875 34.40625 L 74.941406 34.40625 C 74.878906 34.445312 74.84375 34.53125 74.765625 34.570312 C 72.660156 35.949219 71.152344 38.546875 70.664062 41.667969 C 70.199219 44.480469 70.527344 47.375 71.117188 50.839844 " fill-opacity="1" fill-rule="nonzero"/><path fill="#ffffff" d="M 37.648438 93.675781 C 37.800781 94.191406 38.261719 94.628906 38.601562 94.59375 C 38.941406 94.566406 39.429688 94.152344 39.894531 93.789062 C 44.609375 89.953125 50.355469 87.46875 56.328125 86.640625 L 56.328125 85.925781 C 51.609375 84.433594 46.78125 82.789062 42.429688 80.027344 C 41.714844 79.589844 41.035156 79.125 40.410156 78.648438 C 39.179688 82.652344 38.238281 86.777344 37.648438 90.917969 C 37.484375 91.945312 37.386719 92.925781 37.648438 93.675781 " fill-opacity="1" fill-rule="nonzero"/><path fill="#ffffff" d="M 56.300781 16.480469 C 56.425781 19.101562 56.539062 22.074219 55.648438 24.886719 C 54.660156 28.019531 52.414062 30.378906 49.765625 31.195312 C 49.917969 32.738281 50.042969 34.332031 50.078125 35.9375 C 53.253906 37.480469 55.5 40.765625 55.773438 44.304688 C 55.914062 45.847656 55.675781 47.339844 55.449219 48.769531 C 55.296875 49.660156 55.171875 50.511719 55.136719 51.367188 C 54.972656 54.726562 56.441406 58.128906 58.984375 60.359375 C 60.113281 60.210938 61.246094 60.019531 62.449219 59.808594 C 66.160156 59.179688 69.988281 58.515625 73.925781 59.269531 L 76.847656 54.152344 C 75.34375 55.71875 73.875 56.558594 72.457031 56.558594 C 72.03125 56.558594 71.617188 56.472656 71.191406 56.320312 C 68.695312 55.441406 68.179688 52.507812 67.980469 51.402344 C 67.328125 47.589844 67.015625 44.402344 67.527344 41.167969 C 68.066406 37.78125 69.609375 34.84375 71.792969 32.875 C 63.765625 28.160156 59.085938 18.347656 60.941406 9.066406 C 61.082031 8.339844 61.28125 7.585938 61.457031 6.847656 C 61.757812 5.679688 62.035156 4.589844 62.121094 3.558594 C 62.160156 2.945312 62.097656 2.367188 61.972656 1.867188 C 59.875 3.972656 57.71875 6.355469 56.816406 9.167969 C 56.113281 11.449219 56.203125 14.007812 56.300781 16.480469 " fill-opacity="1" fill-rule="nonzero"/><path fill="#ffffff" d="M 49.402344 27.957031 C 50.808594 27.292969 52.035156 25.800781 52.640625 23.917969 C 53.355469 21.636719 53.253906 19.078125 53.152344 16.617188 C 53.027344 14.007812 52.914062 11.035156 53.78125 8.214844 C 54.820312 4.964844 57.105469 2.304688 59.261719 0.0976562 C 58.921875 0.148438 58.585938 0.1875 58.234375 0.261719 C 53.191406 1.453125 50.242188 6.597656 49.226562 10.609375 C 47.933594 15.828125 48.625 21.5 49.289062 26.96875 C 49.328125 27.292969 49.363281 27.632812 49.402344 27.957031 " fill-opacity="1" fill-rule="nonzero"/><path fill="#ffffff" d="M 23.789062 69.203125 C 23.886719 68.449219 23.8125 67.597656 23.726562 66.730469 C 23.625 65.640625 23.523438 64.523438 23.726562 63.359375 C 24.027344 61.425781 24.992188 59.910156 25.945312 58.414062 C 26.308594 57.863281 26.648438 57.3125 26.960938 56.746094 C 27.789062 55.230469 28.101562 53.210938 27.136719 52.292969 C 27.074219 52.21875 27.035156 52.132812 26.984375 52.054688 C 26.898438 51.980469 26.824219 51.894531 26.761719 51.84375 C 22.007812 56.496094 18.96875 63.597656 18.21875 71.925781 C 18.117188 72.992188 18.054688 74.070312 18.015625 75.148438 C 19.082031 74.636719 20.136719 74.082031 21.027344 73.394531 C 21.945312 72.703125 23.484375 71.234375 23.789062 69.203125 " fill-opacity="1" fill-rule="nonzero"/><path fill="#ffffff" d="M 22.910156 102.960938 C 23.136719 103.074219 23.386719 103.109375 23.625 103.171875 L 20.976562 85.484375 C 20.914062 85.085938 20.839844 84.519531 20.652344 84.292969 C 20.476562 84.09375 19.886719 83.941406 18.769531 84.09375 L 18.394531 84.15625 L 18.378906 84.15625 C 18.757812 88.21875 19.382812 92.285156 20.023438 96.273438 C 20.476562 99.210938 21.128906 102.019531 22.910156 102.960938 " fill-opacity="1" fill-rule="nonzero"/><path fill="#ffffff" d="M 76.6875 318.53125 C 76.824219 318.355469 77.023438 318.203125 77.226562 318.117188 C 76.273438 315.832031 75.355469 313.550781 74.492188 311.332031 C 72.570312 306.386719 70.578125 301.296875 68.144531 296.578125 C 63.464844 287.558594 57.695312 281.414062 50.996094 278.289062 C 50.316406 277.976562 49.816406 277.421875 49.578125 276.769531 C 49.226562 276.292969 48.988281 275.617188 48.949219 274.839844 C 48.925781 274.3125 49.027344 273.835938 49.1875 273.398438 C 46.894531 273.160156 45.539062 272.582031 45.578125 272.167969 C 45.703125 271.214844 51.710938 271.351562 58.371094 268.78125 C 59.085938 268.515625 59.738281 268.230469 60.390625 267.953125 C 63.601562 265.921875 66.8125 262.746094 70.101562 258.242188 C 70.324219 257.957031 70.539062 257.652344 70.738281 257.351562 C 58.796875 249.925781 48.625 239.855469 41.097656 227.976562 C 39.691406 230.394531 38.261719 232.816406 36.820312 235.210938 C 32.945312 241.710938 28.917969 248.410156 25.707031 255.195312 C 24.839844 257.015625 24.226562 259.085938 23.574219 261.28125 C 23.136719 262.746094 22.671875 264.277344 22.144531 265.746094 C 20.890625 269.09375 19.761719 274.074219 21.367188 278.816406 C 22.871094 283.269531 26.648438 286.917969 30.273438 290.46875 L 31.089844 291.246094 C 42.390625 302.285156 52.402344 314.84375 60.832031 328.367188 C 67.089844 327.273438 72.960938 323.6875 76.6875 318.53125 " fill-opacity="1" fill-rule="nonzero"/><path fill="#ffffff" d="M 23.097656 82.273438 C 23.824219 83.164062 24 84.230469 24.101562 85.035156 L 26.835938 103.148438 C 27.351562 103.074219 27.890625 102.972656 28.429688 102.859375 C 29.003906 102.757812 29.558594 102.660156 30.109375 102.558594 C 33.660156 101.96875 37.183594 102.144531 40.597656 102.820312 C 40.546875 102.535156 40.519531 102.257812 40.621094 101.96875 C 40.722656 101.730469 40.835938 101.503906 40.921875 101.253906 C 41.410156 98.972656 42.390625 96.789062 43.71875 94.867188 C 43.117188 95.308594 42.527344 95.734375 41.953125 96.210938 C 41.136719 96.863281 40.183594 97.640625 38.878906 97.765625 C 38.777344 97.765625 38.664062 97.777344 38.5625 97.777344 C 36.671875 97.777344 35.164062 96.273438 34.636719 94.707031 C 34.160156 93.277344 34.300781 91.832031 34.5 90.464844 C 35.164062 85.824219 36.242188 81.195312 37.648438 76.71875 C 37.6875 76.617188 37.761719 76.542969 37.800781 76.441406 C 34.511719 73.292969 32.28125 69.566406 31.375 65.601562 C 31.050781 64.035156 30.925781 62.53125 30.8125 61.0625 C 30.722656 60.257812 30.675781 59.457031 30.5625 58.652344 C 30.484375 58.101562 30.386719 57.585938 30.273438 57.097656 C 30.109375 57.511719 29.933594 57.902344 29.757812 58.265625 C 29.394531 58.890625 29.019531 59.507812 28.628906 60.109375 C 27.8125 61.386719 27.0625 62.582031 26.859375 63.859375 C 26.722656 64.648438 26.796875 65.515625 26.898438 66.429688 C 26.984375 67.460938 27.074219 68.527344 26.921875 69.667969 C 26.597656 71.976562 25.191406 74.183594 22.972656 75.914062 C 21.429688 77.082031 19.722656 77.898438 18.015625 78.625 C 18.042969 79.414062 18.078125 80.191406 18.117188 80.984375 L 18.292969 80.96875 C 20.476562 80.632812 22.105469 81.082031 23.097656 82.273438 " fill-opacity="1" fill-rule="nonzero"/><path fill="#ffffff" d="M 164.871094 155.304688 C 165.046875 154.605469 165.261719 153.890625 165.5 153.199219 C 165.960938 151.808594 166.375 150.503906 166.277344 149.246094 C 166.238281 148.695312 166.074219 148.179688 165.875 147.640625 C 165.660156 148.722656 165.261719 149.648438 164.785156 150.363281 C 163.578125 152.132812 162.1875 152.421875 161.972656 152.082031 C 161.671875 151.695312 162.3125 150.804688 162.636719 149.347656 C 163.015625 147.929688 163.101562 145.796875 162.386719 143.664062 C 162.085938 142.773438 161.699219 141.921875 161.296875 141.117188 C 161.332031 141.722656 161.359375 142.3125 161.320312 142.824219 C 161.195312 145.207031 160.542969 146.574219 160.105469 146.511719 C 159.628906 146.460938 159.425781 145.09375 158.949219 143.027344 C 158.5 140.96875 157.683594 138.207031 156.417969 135.234375 C 155.941406 134.105469 155.449219 133.054688 154.949219 132.023438 C 152.589844 128.449219 150.371094 124.785156 148.273438 121.035156 C 142.214844 126.46875 138.414062 134.359375 137.863281 142.472656 C 146.519531 148.207031 155.464844 153.5 164.621094 158.355469 C 164.546875 157.324219 164.621094 156.273438 164.871094 155.304688 " fill-opacity="1" fill-rule="nonzero"/><path fill="#ffffff" d="M 237.453125 131.722656 C 237.375 131.824219 237.300781 131.925781 237.214844 132.023438 C 236.660156 132.640625 236.132812 133.167969 235.65625 133.628906 C 236.6875 134.320312 237.914062 134.695312 239.15625 134.734375 C 238.78125 134.183594 238.40625 133.53125 238.015625 132.789062 C 237.828125 132.4375 237.652344 132.085938 237.453125 131.722656 " fill-opacity="1" fill-rule="nonzero"/><path fill="#ffffff" d="M 230.777344 130.15625 C 229.789062 130.808594 228.871094 131.410156 228.117188 131.898438 C 227.941406 132.023438 227.78125 132.125 227.605469 132.226562 C 227.742188 132.375 227.816406 132.550781 227.90625 132.753906 C 229.523438 133.214844 231.265625 133.191406 232.859375 132.675781 C 232.921875 132.664062 232.960938 132.664062 233.011719 132.664062 C 233.136719 132.601562 233.25 132.601562 233.375 132.550781 C 233.425781 132.324219 233.488281 132.101562 233.550781 131.824219 C 233.75 130.996094 233.914062 130.015625 233.925781 128.953125 C 233.953125 128.726562 233.925781 128.539062 233.890625 128.347656 C 233.550781 128.5 232.871094 128.914062 232.359375 129.203125 C 231.808594 129.539062 231.292969 129.867188 230.777344 130.15625 " fill-opacity="1" fill-rule="nonzero"/><path fill="#ffffff" d="M 73.0625 294.019531 C 73.613281 295.085938 74.152344 296.175781 74.667969 297.292969 C 74.667969 295.761719 74.691406 294.246094 74.703125 292.726562 C 74.730469 290.847656 74.765625 288.988281 74.742188 287.121094 C 74.703125 280.796875 74.089844 272.945312 70.300781 266.722656 C 66.023438 271.339844 61.65625 274.210938 57.140625 275.378906 C 63.328125 279.34375 68.683594 285.578125 73.0625 294.019531 " fill-opacity="1" fill-rule="nonzero"/><path fill="#ffffff" d="M 266.339844 132.0625 C 266.328125 132.0625 266.328125 132.0625 266.304688 132.0625 C 266.304688 133.054688 266.265625 134.042969 266.191406 135.011719 C 269.789062 133.152344 273.804688 132.0625 277.867188 131.863281 C 274.042969 131.183594 270.089844 131.210938 266.339844 132.0625 " fill-opacity="1" fill-rule="nonzero"/><path fill="#ffffff" d="M 232.699219 125.238281 C 233.175781 125.050781 233.828125 124.863281 234.640625 125 C 235.433594 125.125 236.210938 125.703125 236.5625 126.316406 C 236.835938 126.832031 236.960938 127.269531 237.023438 127.660156 C 237.199219 127.597656 237.375 127.597656 237.578125 127.582031 C 237.601562 127.03125 237.613281 126.492188 237.675781 126.015625 C 237.3125 126.054688 237.074219 126.015625 237 125.878906 C 236.824219 125.578125 237.339844 124.925781 238.355469 124.035156 C 238.679688 123.734375 239.183594 123.769531 239.484375 124.097656 C 239.585938 124.210938 239.632812 124.347656 239.671875 124.484375 L 239.734375 124.863281 C 239.898438 125.953125 240.109375 127.421875 240.550781 129.050781 C 240.789062 129.867188 241.039062 130.734375 241.402344 131.609375 C 241.742188 132.539062 242.179688 133.355469 242.46875 133.53125 C 242.570312 133.605469 242.734375 133.65625 242.769531 133.65625 C 242.882812 133.566406 243.171875 132.914062 243.421875 132.226562 C 244 130.808594 244.550781 129.539062 245.066406 128.5 C 246.105469 126.390625 246.960938 125.175781 247.386719 125.324219 C 247.789062 125.464844 247.789062 126.59375 247.472656 128.398438 C 247.648438 129.027344 247.789062 129.867188 247.761719 130.894531 C 247.761719 131.523438 247.6875 132.238281 247.523438 132.992188 C 247.386719 133.769531 247.074219 134.558594 246.933594 135.160156 C 246.734375 135.8125 246.820312 136.1875 246.898438 136.226562 C 246.933594 136.300781 247.386719 136.601562 248.203125 136.867188 C 248.578125 137.015625 248.890625 137.105469 249.117188 137.140625 L 249.292969 137.15625 C 249.332031 137.117188 249.367188 137.054688 249.417969 136.953125 C 249.53125 136.765625 249.65625 136.390625 249.769531 136.050781 C 250.222656 134.683594 250.523438 133.40625 250.734375 132.324219 C 251.164062 130.144531 251.300781 128.648438 251.777344 128.585938 C 252.214844 128.511719 252.917969 129.941406 253.105469 132.464844 C 253.183594 133.59375 253.082031 134.972656 252.804688 136.441406 C 253.007812 137.078125 253.257812 137.808594 253.621094 138.648438 C 254.136719 139.851562 254.886719 141.269531 255.890625 142.738281 C 256.367188 143.488281 256.871094 143.964844 257.144531 143.980469 C 257.207031 144.003906 257.222656 144.003906 257.246094 143.980469 C 257.269531 143.980469 257.359375 143.839844 257.410156 143.664062 C 257.523438 143.289062 257.320312 142.199219 257.171875 141.21875 C 257.007812 140.226562 256.832031 139.273438 256.632812 138.382812 C 256.253906 136.566406 255.917969 134.921875 255.617188 133.53125 C 255.0625 130.734375 254.886719 128.925781 255.328125 128.789062 C 255.753906 128.648438 256.730469 130.179688 257.886719 132.839844 C 258.449219 134.167969 259.066406 135.773438 259.628906 137.632812 C 259.90625 138.558594 260.15625 139.550781 260.394531 140.59375 C 260.421875 140.742188 260.457031 140.90625 260.484375 141.070312 C 260.695312 141.019531 260.910156 141.019531 261.136719 141.042969 C 261.273438 140.804688 261.386719 140.328125 261.449219 140.078125 C 262.476562 135.613281 262.640625 130.996094 261.9375 126.492188 C 260.769531 124.234375 259.390625 122.339844 257.761719 120.886719 C 255.203125 118.539062 252.015625 117.285156 249.042969 117.371094 C 246.671875 117.449219 244.199219 118.375 241.816406 119.28125 C 237.816406 120.785156 233.664062 122.339844 230.125 124.625 C 227.917969 126.039062 225.144531 128.300781 223.378906 131.410156 C 224.117188 131.386719 224.871094 131.410156 225.621094 131.472656 C 226.574219 129.777344 228.847656 127.21875 232.699219 125.238281 " fill-opacity="1" fill-rule="nonzero"/><path fill="#ffffff" d="M 285.457031 143.578125 C 284.292969 144.230469 284.152344 146.175781 284.832031 147.503906 C 285.695312 149.171875 287.527344 150.390625 289.132812 151.457031 L 301.289062 159.507812 C 304.5 161.628906 307.710938 163.773438 310.898438 165.894531 C 311.472656 166.28125 312.027344 166.660156 312.605469 167.035156 C 312.253906 166.519531 311.914062 166.007812 311.613281 165.453125 C 308.136719 158.96875 308.714844 150.664062 313.003906 145.234375 C 310.183594 146.4375 307.671875 148.394531 305.878906 150.902344 C 305.351562 151.65625 304.5 152.046875 303.621094 152.046875 C 303.070312 152.046875 302.519531 151.894531 302.015625 151.53125 C 301.902344 151.457031 301.816406 151.316406 301.703125 151.21875 C 300.914062 150.980469 300.210938 150.425781 299.871094 149.585938 C 299.796875 149.4375 299.722656 149.273438 299.632812 149.097656 C 296.410156 147.179688 293.035156 145.460938 289.546875 144.054688 C 288.117188 143.488281 286.535156 142.988281 285.457031 143.578125 " fill-opacity="1" fill-rule="nonzero"/><path fill="#ffffff" d="M 155.449219 126.894531 C 155.625 127.183594 155.800781 127.484375 155.976562 127.785156 C 156.542969 128.539062 157.09375 129.402344 157.644531 130.355469 C 160.242188 134.28125 162.976562 138.132812 165.875 141.835938 C 167.441406 143.855469 169.210938 146.136719 169.449219 148.996094 C 169.585938 150.878906 169.046875 152.546875 168.507812 154.175781 C 168.320312 154.804688 168.121094 155.445312 167.957031 156.058594 C 167.542969 157.714844 167.742188 159.695312 168.886719 160.3125 C 169.109375 160.449219 169.285156 160.636719 169.425781 160.839844 C 176.363281 164.363281 183.425781 167.648438 190.585938 170.671875 C 190.636719 170.511719 190.726562 170.347656 190.789062 170.171875 C 191.277344 168.742188 191.753906 167.296875 192.230469 165.867188 C 194.664062 158.628906 197.160156 151.140625 201.625 144.667969 C 204.800781 140.078125 209.679688 135.472656 215.5625 133.078125 C 210.117188 124.761719 204.421875 116.257812 197.386719 109.207031 C 193.910156 105.730469 190.023438 102.558594 186.121094 99.496094 C 183.121094 104.1875 179.222656 108.128906 175.410156 111.953125 C 169.839844 117.546875 163.542969 123.871094 155.449219 126.894531 " fill-opacity="1" fill-rule="nonzero"/><path fill="#ffffff" d="M 64.417969 92.449219 C 62.246094 91.695312 60.113281 90.953125 57.996094 90.152344 C 57.832031 90.0625 57.65625 89.988281 57.519531 89.890625 C 51.472656 91.605469 46.292969 96.335938 43.972656 102.183594 C 43.871094 102.632812 43.808594 103.109375 43.757812 103.585938 C 47.960938 104.804688 51.960938 106.648438 55.585938 108.667969 C 56.226562 107.199219 56.726562 105.644531 57.191406 104 C 57.492188 102.996094 57.808594 101.980469 58.144531 100.976562 C 59.601562 96.800781 61.695312 93.953125 64.417969 92.449219 " fill-opacity="1" fill-rule="nonzero"/><path fill="#ffffff" d="M 87.988281 68.164062 L 89.117188 69.230469 C 99.492188 78.898438 112.058594 86.476562 125.445312 91.179688 L 126.199219 91.433594 C 127.867188 92.007812 129.609375 92.625 131.289062 93.375 C 131.203125 93.074219 131.050781 92.761719 130.976562 92.484375 C 130.300781 90.203125 130.398438 88.695312 130.839844 88.597656 C 131.765625 88.359375 133.609375 93.476562 138.113281 98.054688 C 142.542969 102.722656 147.597656 104.714844 147.335938 105.644531 C 147.222656 106.070312 145.714844 106.121094 143.445312 105.394531 C 143.308594 105.332031 143.132812 105.253906 142.996094 105.191406 C 144.824219 107.890625 146.332031 110.761719 147.785156 113.558594 L 148.789062 115.429688 C 150.34375 118.402344 152.039062 121.300781 153.757812 124.171875 C 153.792969 124.171875 153.820312 124.132812 153.859375 124.109375 C 161.535156 121.414062 167.71875 115.214844 173.152344 109.722656 C 176.925781 105.945312 180.765625 102.054688 183.601562 97.566406 C 182.933594 97.0625 182.269531 96.550781 181.617188 96.046875 C 178.367188 93.578125 174.996094 90.992188 171.769531 88.308594 C 170.238281 87.015625 168.734375 85.6875 167.230469 84.371094 C 162.363281 80.117188 157.785156 76.066406 152.390625 73.230469 C 147.558594 70.695312 142.277344 69.230469 136.683594 67.671875 C 134.765625 67.144531 132.847656 66.605469 130.9375 66.03125 C 119.085938 62.429688 107.894531 57.035156 97.109375 51.304688 C 95.566406 55.679688 93.59375 59.882812 91.226562 63.859375 C 90.335938 65.339844 89.292969 66.871094 87.988281 68.164062 " fill-opacity="1" fill-rule="nonzero"/><path fill="#ffffff" d="M 122.875 126.054688 C 121.269531 126.945312 119.160156 127.835938 116.726562 128.511719 C 120.765625 130.621094 124.554688 133.277344 128.242188 135.886719 L 129.535156 136.804688 C 131.277344 138.03125 133.058594 139.238281 134.839844 140.453125 C 135.882812 132.085938 140.019531 124.097656 146.34375 118.515625 C 145.390625 116.972656 144.664062 115.328125 143.960938 113.722656 C 143.34375 112.265625 142.730469 110.886719 142.003906 109.632812 C 141.800781 109.320312 141.628906 109.042969 141.453125 108.742188 C 141.125 108.292969 140.8125 107.878906 140.460938 107.476562 C 138.992188 105.871094 136.886719 104.652344 134.226562 103.851562 C 133.222656 103.550781 132.195312 103.335938 131.140625 103.148438 C 130.222656 103.171875 129.308594 103.210938 128.40625 103.210938 C 107.882812 103.210938 87.171875 99.898438 67.640625 93.539062 C 67.589844 94.117188 67.253906 94.644531 66.675781 94.867188 C 64.34375 95.796875 62.472656 98.21875 61.144531 102.019531 C 60.832031 102.972656 60.527344 103.949219 60.253906 104.917969 C 59.714844 106.699219 59.160156 108.503906 58.371094 110.246094 C 59.023438 110.648438 59.675781 111.050781 60.316406 111.441406 C 61.394531 112.128906 62.511719 112.832031 63.613281 113.523438 C 70.777344 118.089844 78.179688 122.78125 86.28125 123.945312 C 89.242188 124.386719 92.277344 124.347656 95.488281 124.308594 C 99.289062 124.273438 103.21875 124.234375 107.144531 125 C 108.574219 125.277344 109.929688 125.703125 111.269531 126.152344 C 111.371094 126.128906 111.472656 126.128906 111.582031 126.117188 C 119.8125 125.175781 126.023438 122.128906 126.511719 122.957031 C 126.738281 123.332031 125.421875 124.648438 122.875 126.054688 " fill-opacity="1" fill-rule="nonzero"/><path fill="#ffffff" d="M 337.703125 206.023438 C 337.515625 206.058594 337.390625 206.160156 337.328125 206.199219 C 337.289062 206.234375 337.289062 206.222656 337.277344 206.296875 C 337.214844 206.4375 337.429688 206.988281 337.765625 207.328125 C 338.03125 207.601562 338.445312 207.929688 338.882812 208.269531 C 339.636719 208.542969 340.261719 208.957031 340.777344 209.371094 C 341.417969 209.910156 341.894531 210.5 342.246094 211.117188 L 342.921875 209.433594 C 342.332031 208.832031 341.695312 208.242188 340.914062 207.628906 C 339.710938 206.636719 338.320312 205.757812 337.703125 206.023438 " fill-opacity="1" fill-rule="nonzero"/><path fill="#ffffff" d="M 210.769531 215.644531 C 210.128906 216.433594 209.464844 217.1875 208.75 217.914062 C 208.25 221.289062 206.84375 224.5 204.699219 227.160156 C 204.835938 227.324219 204.9375 227.472656 205.039062 227.636719 C 205.152344 227.597656 205.25 227.5625 205.375 227.511719 C 206.996094 226.128906 208.363281 224.425781 209.300781 222.480469 C 210.320312 220.359375 210.808594 218.003906 210.769531 215.644531 " fill-opacity="1" fill-rule="nonzero"/><path fill="#ffffff" d="M 261.988281 233.996094 C 261.960938 233.984375 261.960938 233.984375 261.9375 233.957031 C 261.8125 233.984375 261.675781 234.019531 261.523438 234.019531 C 259.402344 233.921875 257.597656 235.828125 256.707031 236.957031 C 256.230469 237.570312 255.804688 238.199219 255.339844 238.835938 C 254.386719 240.230469 253.382812 241.671875 252.015625 242.839844 C 250.621094 244.054688 248.679688 244.882812 246.773438 244.882812 C 245.628906 244.882812 244.488281 244.570312 243.496094 243.855469 C 242.320312 242.976562 241.640625 241.75 241.0625 240.667969 C 240.6875 239.96875 240.335938 239.328125 239.898438 238.835938 C 239.246094 238.097656 238.292969 237.582031 237.277344 237.03125 L 236.484375 236.617188 C 235.15625 235.863281 233.3125 234.636719 232.632812 232.554688 C 232.359375 231.699219 232.347656 230.847656 232.320312 230.09375 C 232.320312 229.867188 232.320312 229.644531 232.308594 229.441406 C 232.257812 228.488281 232.046875 228.085938 231.84375 227.9375 C 231.820312 227.886719 231.742188 227.875 231.679688 227.875 C 231.667969 227.910156 231.632812 227.9375 231.605469 227.949219 C 231.492188 229.441406 231.230469 231.1875 230.539062 232.855469 C 229.648438 234.988281 228.15625 236.644531 226.351562 237.496094 C 225.460938 237.910156 224.507812 238.097656 223.554688 238.097656 C 222.171875 238.097656 220.804688 237.671875 219.789062 236.792969 C 218.320312 235.5625 217.605469 233.542969 217.605469 231.085938 C 217.605469 231.023438 217.605469 230.949219 217.605469 230.886719 C 214.332031 229.316406 210.496094 229.066406 207.019531 230.09375 C 207.195312 230.394531 207.332031 230.722656 207.421875 231.097656 C 208.1875 235.6875 209.027344 240.40625 210.734375 244.644531 C 212 247.792969 214.359375 252.085938 218.421875 254.605469 C 219.828125 255.472656 221.46875 256.148438 223.339844 256.601562 C 221.121094 255.320312 219.449219 253.613281 218.496094 252.109375 C 217.078125 249.902344 216.917969 248.234375 217.316406 248.082031 C 217.769531 247.855469 218.660156 249.074219 220.328125 250.589844 C 221.945312 252.121094 224.46875 253.953125 227.617188 254.855469 C 228.53125 255.132812 229.421875 255.269531 230.300781 255.394531 C 230.214844 255.332031 230.125 255.269531 230.039062 255.21875 C 227.765625 253.527344 227.191406 251.785156 227.527344 251.570312 C 227.917969 251.257812 229.085938 252.296875 231.203125 253.152344 C 233.3125 254.042969 236.484375 254.644531 239.960938 254.203125 C 243.460938 253.753906 246.632812 252.574219 249.015625 251.820312 C 250.460938 251.34375 251.613281 251.03125 252.339844 250.957031 C 254.824219 249.386719 257.121094 247.582031 259.191406 245.535156 C 261.347656 243.390625 262.550781 241.636719 263.128906 239.855469 C 263.746094 237.921875 263.46875 235.890625 262.425781 234.734375 C 262.226562 234.511719 262.101562 234.257812 261.988281 233.996094 " fill-opacity="1" fill-rule="nonzero"/><path fill="#ffffff" d="M 218.523438 194.832031 C 218.484375 195.574219 218.460938 196.324219 218.382812 197.066406 C 217.933594 202.335938 216.125 207.515625 213.304688 212.042969 C 213.367188 212.144531 213.429688 212.230469 213.441406 212.34375 C 214.183594 216.171875 213.667969 220.234375 211.972656 223.773438 C 211.496094 224.738281 210.921875 225.667969 210.292969 226.542969 C 212.914062 226.40625 215.523438 226.84375 217.945312 227.835938 C 218.6875 224.449219 220.304688 221.289062 222.648438 218.730469 C 221.933594 211.832031 223.578125 204.855469 227.226562 198.996094 C 224.570312 198.785156 222.523438 197.453125 220.71875 196.1875 C 219.953125 195.671875 219.238281 195.195312 218.523438 194.832031 " fill-opacity="1" fill-rule="nonzero"/><path fill="#ffffff" d="M 274.894531 195.121094 C 276.714844 189.941406 280.601562 185.324219 285.835938 182.074219 C 290.199219 179.367188 295.570312 177.574219 301.777344 176.695312 C 308.488281 175.742188 315.363281 176.003906 321.988281 177.398438 C 318.035156 174.296875 313.832031 171.425781 309.253906 168.363281 C 306.042969 166.230469 302.84375 164.101562 299.632812 161.980469 L 287.476562 153.9375 C 285.660156 152.722656 283.402344 151.230469 282.183594 148.859375 C 280.855469 146.273438 281.28125 142.511719 284.015625 140.980469 C 286.199219 139.777344 288.695312 140.503906 290.652344 141.308594 C 292.785156 142.160156 294.855469 143.125 296.898438 144.179688 C 295.28125 141.796875 293.3125 139.652344 291.078125 137.859375 C 287.503906 135.914062 283.4375 134.820312 279.347656 134.785156 C 274.53125 134.722656 269.777344 136.152344 265.75 138.710938 C 265.652344 139.238281 265.550781 139.75 265.4375 140.292969 C 265.4375 140.945312 265.449219 141.597656 265.539062 142.246094 C 265.675781 143.488281 266.027344 144.59375 266.441406 145.484375 C 266.878906 145.710938 267.320312 145.949219 267.769531 146.199219 C 269.414062 147.128906 271.144531 148.308594 272.851562 149.6875 C 276.238281 152.484375 278.734375 155.621094 280.226562 158.054688 C 281.695312 160.511719 282.210938 162.242188 281.808594 162.480469 C 281.003906 162.972656 277.054688 157.4375 270.707031 152.285156 C 269.136719 150.980469 267.570312 149.824219 266.128906 148.796875 C 264.648438 147.804688 263.355469 146.875 262.300781 146.414062 C 262.050781 146.324219 261.8125 146.222656 261.5625 146.160156 C 260.820312 147.113281 259.78125 147.84375 258.613281 148.21875 C 258.113281 150.363281 256.730469 152.371094 254.648438 153.777344 C 252.53125 155.179688 250.109375 155.832031 247.789062 156.308594 L 246.660156 156.546875 C 244.914062 156.886719 243.257812 157.226562 241.78125 157.839844 C 239.859375 158.628906 238.152344 159.921875 236.324219 161.265625 C 235.65625 161.792969 234.957031 162.28125 234.265625 162.78125 C 232.347656 164.101562 229.5625 165.792969 226.351562 166.132812 C 226 169.894531 225.144531 173.609375 223.742188 177.132812 C 223.203125 178.511719 222.585938 179.867188 221.945312 181.234375 C 220.71875 183.90625 219.550781 186.453125 219.035156 189.152344 C 219.3125 189.164062 219.613281 189.199219 219.890625 189.324219 C 221.394531 189.929688 222.699219 190.820312 223.878906 191.621094 C 225.347656 192.636719 226.574219 193.453125 227.804688 193.515625 C 228.871094 193.492188 230.0625 192.738281 231.441406 191.859375 C 233.210938 190.757812 235.230469 189.488281 237.777344 189.363281 C 241.128906 189.1875 244.375 191.171875 246.519531 194.582031 C 247.585938 196.261719 248.238281 198.042969 248.890625 199.761719 C 249.269531 199.761719 249.667969 199.851562 250.046875 200.039062 C 258 203.902344 266.441406 206.851562 275.109375 208.921875 C 273.429688 204.691406 273.289062 199.699219 274.894531 195.121094 " fill-opacity="1" fill-rule="nonzero"/><path fill="#ffffff" d="M 194.925781 220.699219 C 194.851562 220.199219 196.808594 219.582031 199.582031 218.101562 C 202.339844 216.632812 205.929688 214.089844 208.648438 210.289062 C 211.359375 206.472656 212.589844 202.257812 213.066406 199.160156 C 213.566406 196.074219 213.503906 194.003906 213.992188 193.929688 C 214.132812 193.890625 214.332031 194.128906 214.558594 194.59375 C 214.570312 194.355469 214.597656 194.144531 214.597656 193.929688 C 214.671875 192.199219 214.746094 190.417969 215.085938 188.636719 C 215.6875 185.375 217.03125 182.425781 218.347656 179.566406 C 218.9375 178.289062 219.539062 176.996094 220.054688 175.679688 C 221.292969 172.53125 222.074219 169.253906 222.410156 165.90625 C 222.324219 165.292969 222.273438 164.675781 222.210938 164.050781 C 222.046875 162.117188 221.808594 160.539062 221.558594 159.332031 C 221.320312 158.140625 221.082031 157.300781 221.433594 156.988281 C 221.757812 156.6875 222.726562 157.0625 223.679688 158.292969 C 224.394531 159.207031 225.007812 160.613281 225.320312 162.179688 C 227.265625 162.167969 229.410156 161.328125 232.007812 159.507812 C 232.660156 159.042969 233.3125 158.566406 233.953125 158.089844 C 235.882812 156.648438 237.890625 155.167969 240.25 154.175781 C 242.117188 153.414062 244.023438 153.023438 245.882812 152.660156 L 246.972656 152.421875 C 248.890625 152.03125 250.875 151.519531 252.429688 150.476562 C 253.773438 149.546875 254.648438 148.242188 254.789062 146.976562 C 254.613281 146.851562 254.4375 146.714844 254.3125 146.511719 L 250.925781 141.042969 C 250.761719 141.042969 250.585938 141.070312 250.421875 141.070312 C 247.375 141.070312 244.3125 139.714844 242.292969 137.429688 C 241.339844 137.730469 240.375 137.933594 239.394531 137.933594 C 237.199219 137.933594 235.042969 137.179688 233.3125 135.8125 C 232.308594 136.089844 231.265625 136.265625 230.238281 136.265625 C 228.796875 136.265625 227.339844 135.988281 226 135.449219 C 225.9375 135.449219 225.921875 135.472656 225.859375 135.449219 C 216.953125 134.421875 208.976562 140.980469 204.898438 146.941406 C 200.761719 152.921875 198.339844 160.136719 195.992188 167.121094 C 195.503906 168.589844 195.027344 170.035156 194.511719 171.476562 C 194.488281 171.578125 194.449219 171.664062 194.414062 171.75 C 194 173.445312 193.535156 175.1875 193.019531 177.019531 C 191.640625 182.1875 189.835938 186.941406 187.726562 189.976562 C 185.667969 193.050781 183.6875 194.320312 183.386719 194.03125 C 183.023438 193.667969 184.300781 191.921875 185.667969 188.835938 C 186.660156 186.691406 187.613281 183.832031 188.566406 180.546875 C 185.304688 182.601562 181.328125 182.691406 177.792969 182.703125 C 177.101562 182.726562 176.398438 182.726562 175.734375 182.742188 C 168.496094 182.964844 162.050781 185.539062 158.046875 189.816406 C 153.554688 194.582031 152.351562 201.957031 155.210938 206.9375 C 157.054688 210.160156 160.332031 212.445312 163.503906 214.488281 C 170.175781 218.792969 177.238281 222.582031 184.515625 225.828125 C 189.683594 226.40625 194.890625 226.582031 200.082031 226.332031 C 202.378906 224.25 203.972656 221.425781 204.625 218.414062 C 203.167969 219.269531 201.761719 219.882812 200.496094 220.273438 C 197.160156 221.328125 194.988281 221.089844 194.925781 220.699219 " fill-opacity="1" fill-rule="nonzero"/><path fill="#ffffff" d="M 253.320312 212.308594 C 253.183594 212.070312 253.054688 211.917969 252.980469 211.792969 C 252.089844 212.03125 251.113281 211.769531 250.421875 211.140625 C 248.0625 209.886719 246.144531 207.589844 244.714844 204.253906 C 244.363281 203.4375 244.039062 202.585938 243.722656 201.757812 C 243.121094 200.226562 242.59375 198.757812 241.816406 197.542969 C 241.027344 196.289062 239.558594 194.882812 238.015625 194.921875 C 236.9375 194.957031 235.707031 195.75 234.402344 196.5625 C 233.476562 197.152344 232.460938 197.792969 231.332031 198.269531 C 226.914062 204.054688 224.746094 211.691406 225.636719 218.867188 C 225.660156 218.96875 225.621094 219.066406 225.621094 219.167969 C 225.660156 219.582031 225.523438 219.996094 225.222656 220.335938 C 222.660156 222.917969 221.042969 226.34375 220.605469 229.929688 C 220.46875 231.1875 220.402344 233.429688 221.707031 234.511719 C 222.550781 235.226562 223.929688 235.351562 225.082031 234.796875 C 226.238281 234.257812 227.191406 233.167969 227.78125 231.699219 C 228.433594 230.167969 228.609375 228.488281 228.707031 227.019531 C 228.734375 226.46875 229.070312 226.003906 229.550781 225.792969 C 229.9375 225.378906 230.476562 225.078125 231.066406 224.964844 C 232.046875 224.777344 233.113281 225.050781 233.851562 225.714844 C 234.71875 226.507812 235.195312 227.671875 235.269531 229.277344 C 235.292969 229.515625 235.292969 229.78125 235.292969 230.03125 C 235.320312 230.632812 235.332031 231.210938 235.46875 231.664062 C 235.734375 232.476562 236.523438 233.230469 237.929688 234.019531 L 238.667969 234.421875 C 239.824219 235.035156 241.128906 235.726562 242.117188 236.855469 C 242.796875 237.609375 243.246094 238.4375 243.6875 239.25 C 244.175781 240.179688 244.613281 240.984375 245.253906 241.460938 C 246.597656 242.425781 248.742188 241.734375 250.070312 240.605469 C 251.164062 239.664062 252.015625 238.4375 252.90625 237.15625 C 253.382812 236.453125 253.859375 235.765625 254.375 235.113281 C 256.15625 232.855469 258.238281 231.5 260.332031 231.148438 C 259.152344 228.625 257.785156 226.195312 256.230469 223.871094 C 255.703125 223.308594 255.378906 222.519531 255.464844 221.691406 C 255.777344 218.429688 255.027344 215.105469 253.320312 212.308594 " fill-opacity="1" fill-rule="nonzero"/><path fill="#ffffff" d="M 336.460938 195.75 C 337.703125 195.308594 339.511719 194.972656 341.582031 195.257812 C 341.582031 195.234375 341.582031 195.210938 341.582031 195.210938 C 341.582031 195.097656 341.519531 195.019531 341.519531 194.921875 C 341.492188 194.066406 341.480469 193.191406 341.28125 192.539062 C 341.140625 192.097656 340.914062 191.859375 340.839844 191.824219 C 340.777344 191.785156 340.425781 191.671875 339.261719 192 C 337.492188 192.523438 335.847656 193.289062 334.355469 194.34375 C 333.902344 194.683594 333.390625 194.78125 332.875 194.796875 C 331.371094 195.734375 329.839844 196.839844 328.433594 198.246094 C 326.0625 200.652344 324.105469 203.839844 323.753906 207.601562 C 323.628906 208.617188 323.53125 210.011719 322.601562 211.316406 C 321.621094 212.621094 320.382812 213.148438 319.464844 213.535156 C 317.660156 214.289062 316.054688 215.078125 314.523438 215.957031 C 311.472656 217.664062 308.953125 219.582031 306.933594 221.3125 C 302.90625 224.839844 300.863281 227.5625 300.4375 227.273438 C 300.097656 227.058594 301.464844 223.808594 305.289062 219.621094 C 307.210938 217.5625 309.757812 215.304688 312.941406 213.296875 C 314.523438 212.308594 316.316406 211.355469 318.136719 210.539062 C 320.003906 209.648438 320.179688 209.445312 320.445312 207.214844 C 320.632812 204.96875 321.410156 202.6875 322.464844 200.828125 C 323.53125 198.949219 324.859375 197.355469 326.289062 196.023438 C 326.742188 195.609375 327.21875 195.273438 327.695312 194.894531 C 327.871094 194.082031 328.269531 193.050781 328.722656 191.960938 C 328.960938 191.433594 329.1875 190.894531 329.425781 190.417969 C 329.300781 187.445312 328.472656 184.472656 327.003906 181.886719 C 326.867188 181.875 326.742188 181.886719 326.601562 181.835938 C 318.773438 179.390625 310.34375 178.703125 302.21875 179.832031 C 296.445312 180.644531 291.503906 182.300781 287.527344 184.761719 C 282.886719 187.644531 279.472656 191.683594 277.894531 196.164062 C 276.238281 200.828125 276.738281 205.984375 279.097656 209.8125 C 284.566406 210.914062 290.074219 211.65625 295.617188 211.992188 C 295.792969 210.839844 295.996094 209.648438 296.171875 208.40625 C 297.300781 200.515625 297.4375 193.96875 298.417969 193.890625 C 299.03125 193.804688 299.921875 197.277344 299.933594 202.296875 C 300.75 200.792969 301.578125 199.460938 302.394531 198.382812 C 304.375 195.75 306.03125 194.480469 306.355469 194.757812 C 307.109375 195.347656 302.492188 201.78125 300.097656 210.902344 C 299.722656 212.308594 299.40625 213.710938 299.105469 215.066406 C 299.105469 215.179688 299.105469 215.28125 299.082031 215.378906 C 297.199219 224.738281 295.054688 235.363281 297.222656 245.121094 C 297.75 247.519531 298.554688 249.011719 299.59375 249.527344 C 300.296875 249.863281 301.402344 249.890625 302.769531 249.5625 C 307.773438 248.410156 312.464844 244.394531 316.707031 237.609375 C 317.859375 235.789062 318.949219 233.84375 320.003906 231.949219 C 322.324219 227.835938 324.746094 223.597656 328.007812 219.882812 C 328.535156 218.828125 329.675781 218.203125 330.90625 218.390625 C 332.535156 218.667969 334.28125 218.894531 335.808594 218.765625 C 335.710938 218.277344 335.585938 217.625 335.332031 216.886719 C 335.09375 216.09375 334.617188 215.492188 333.902344 214.175781 C 333.566406 213.523438 333.226562 212.582031 333.289062 211.515625 C 333.265625 210.589844 333.839844 209.359375 334.832031 208.65625 C 334.378906 208.042969 334.015625 207.265625 334.003906 206.222656 C 334.003906 205.40625 334.34375 204.515625 334.933594 203.902344 C 335.09375 203.738281 335.269531 203.640625 335.445312 203.5 C 335.410156 203.488281 335.371094 203.4375 335.347656 203.402344 C 334.894531 202.8125 334.59375 202.019531 334.554688 201.269531 C 334.480469 200.078125 334.871094 198.921875 335.570312 197.996094 C 334.757812 197.917969 334.21875 197.753906 334.140625 197.453125 C 334.015625 197.015625 334.855469 196.3125 336.460938 195.75 " fill-opacity="1" fill-rule="nonzero"/><path fill="#ffffff" d="M 342.09375 199.285156 C 341.457031 199.023438 340.804688 198.910156 340.1875 198.984375 C 339.546875 199.058594 338.894531 199.324219 338.46875 199.738281 C 338.042969 200.113281 337.828125 200.628906 337.828125 201.066406 C 337.84375 201.457031 337.96875 201.71875 338.445312 202.070312 C 339.398438 202.773438 341.117188 202.886719 342.609375 203.625 C 343.324219 203.964844 344.039062 204.53125 344.390625 205.105469 C 344.453125 205.207031 344.464844 205.292969 344.503906 205.371094 C 344.929688 204.277344 345.242188 203.164062 345.320312 202.121094 C 345.242188 201.996094 345.167969 201.882812 345.066406 201.746094 C 344.351562 200.792969 343.335938 199.800781 342.09375 199.285156 " fill-opacity="1" fill-rule="nonzero"/><g clip-path="url(#c3dc288212)"><path fill="#ffffff" d="M 340.664062 151.554688 C 340.402344 152.046875 339.785156 152.609375 338.933594 152.960938 C 337.191406 153.777344 334.757812 153.476562 333.640625 154.152344 C 333.027344 154.503906 332.914062 154.667969 332.835938 155.167969 C 332.773438 155.695312 332.949219 156.296875 333.25 156.847656 C 333.878906 157.976562 334.519531 158.867188 334.203125 159.246094 C 333.917969 159.570312 332.925781 159.507812 331.484375 158.417969 C 330.792969 157.851562 329.941406 156.863281 329.765625 155.382812 C 329.636719 154.640625 329.765625 153.714844 330.214844 152.921875 C 330.667969 152.132812 331.371094 151.554688 332.097656 151.179688 C 333.566406 150.425781 335.007812 150.464844 335.984375 150.527344 C 337.015625 150.578125 337.753906 150.675781 338.355469 150.675781 C 339.574219 150.726562 340.3125 150.339844 340.703125 150.578125 C 340.878906 150.726562 340.941406 151.078125 340.664062 151.554688 Z M 356.621094 145.046875 C 356.421875 142.824219 355.679688 140.90625 354.5 139.652344 C 352.894531 137.933594 350.234375 137.078125 347.601562 136.425781 C 340.351562 134.597656 335.109375 134.695312 331.132812 136.742188 C 330.355469 137.140625 329.460938 137.117188 328.710938 136.777344 C 328.648438 136.765625 328.585938 136.765625 328.546875 136.742188 C 326.402344 136.152344 323.96875 136.402344 322.023438 137.457031 C 320.207031 138.445312 318.75 140.164062 318.023438 142.109375 C 318.789062 141.597656 319.527344 141.15625 320.15625 140.832031 C 321.960938 139.878906 323.214844 139.511719 323.492188 139.890625 C 323.753906 140.265625 322.976562 141.320312 321.546875 142.738281 C 320.15625 144.140625 318.136719 145.898438 316.214844 148.003906 C 314.722656 149.625 313.558594 151.28125 312.730469 152.722656 C 311.886719 156.433594 312.363281 160.539062 314.234375 164.050781 C 316.980469 169.167969 322.601562 173.03125 328.886719 174.121094 C 329 174.136719 329.125 174.222656 329.222656 174.261719 C 335.472656 172.691406 341.390625 169.34375 348.140625 164.839844 C 350.324219 163.398438 352.207031 162.066406 353.449219 160.3125 C 355.039062 158.089844 355.617188 155.117188 356.105469 152.03125 C 356.484375 149.625 356.820312 147.316406 356.621094 145.046875 " fill-opacity="1" fill-rule="nonzero"/></g><path fill="#ffffff" d="M 338.921875 211.832031 C 338.519531 211.578125 338.082031 211.378906 337.691406 211.316406 C 337.289062 211.242188 336.875 211.289062 336.75 211.378906 C 336.664062 211.429688 336.613281 211.417969 336.539062 211.730469 C 336.5 212.042969 336.5625 212.445312 336.738281 212.960938 C 337.089844 213.914062 337.703125 215.367188 337.667969 216.507812 C 337.667969 217.351562 337.554688 218.015625 337.351562 218.527344 C 337.941406 218.351562 338.46875 218.101562 338.921875 217.738281 C 339.824219 216.972656 340.464844 215.605469 341.003906 214.265625 C 340.738281 213.875 340.402344 213.261719 339.875 212.609375 C 339.585938 212.332031 339.273438 212.042969 338.921875 211.832031 " fill-opacity="1" fill-rule="nonzero"/><g clip-path="url(#63ce59a899)"><path fill="#ffffff" d="M 92.015625 358.042969 L 92.65625 357.628906 C 93.65625 356.953125 94.160156 356.375 94.199219 355.886719 C 94.234375 355.371094 93.757812 354.707031 93.269531 354.019531 L 92.867188 353.441406 C 91.574219 351.496094 90.949219 349.136719 90.984375 346.804688 C 88.425781 348.4375 85.429688 349.339844 82.445312 349.339844 C 82.382812 349.339844 82.316406 349.339844 82.28125 349.339844 C 81.742188 349.339844 81.050781 349.277344 80.335938 349.101562 L 80.363281 349.125 C 80.550781 350.894531 81.152344 352.613281 81.792969 354.433594 L 82.242188 355.785156 C 82.996094 358.082031 83.722656 360.804688 83.308594 363.5625 C 82.832031 366.789062 80.800781 369.410156 78.078125 370.199219 C 76.886719 370.5625 75.65625 370.539062 74.566406 370.527344 C 73.953125 370.527344 73.375 370.5 72.847656 370.5625 C 72.785156 370.601562 72.746094 370.664062 72.683594 370.714844 C 71.65625 371.605469 70.578125 372.558594 70.640625 373.136719 C 70.675781 373.410156 71.152344 373.875 71.792969 374.089844 C 72.796875 374.425781 74.128906 374.363281 75.417969 374.300781 L 82.933594 373.925781 C 85.015625 372.382812 86.519531 370.0625 86.921875 367.492188 C 86.996094 367 87.035156 366.511719 87.085938 366.023438 C 87.199219 364.667969 87.3125 363.136719 88.074219 361.757812 C 88.980469 360.027344 90.585938 358.972656 92.015625 358.042969 " fill-opacity="1" fill-rule="nonzero"/></g><path fill="#ffffff" d="M 75.644531 367.539062 C 76.210938 367.539062 76.75 367.503906 77.25 367.363281 C 79.042969 366.8125 80.125 364.84375 80.375 363.136719 C 80.6875 361.003906 80.058594 358.683594 79.40625 356.714844 L 78.96875 355.410156 C 78.316406 353.527344 77.640625 351.558594 77.402344 349.464844 L 77.363281 349.136719 C 77.300781 348.660156 77.261719 348.210938 77.125 347.933594 C 76.785156 347.246094 75.59375 347.042969 74.742188 347.332031 C 73.800781 347.671875 72.921875 348.449219 72.144531 349.238281 C 73.300781 351.699219 74.414062 354.195312 75.457031 356.703125 C 76.296875 358.695312 78.039062 362.863281 76.210938 366.613281 C 76.035156 366.949219 75.832031 367.253906 75.644531 367.539062 " fill-opacity="1" fill-rule="nonzero"/><path fill="#ffffff" d="M 80.363281 337.796875 C 79.007812 340.082031 78.628906 342.578125 79.34375 344.523438 C 79.519531 345 79.847656 345.636719 80.375 345.976562 C 80.914062 346.304688 81.742188 346.367188 82.292969 346.367188 C 82.34375 346.367188 82.40625 346.367188 82.445312 346.367188 C 86.167969 346.367188 89.894531 344.621094 92.289062 341.761719 C 92.316406 341.75 92.328125 341.726562 92.355469 341.710938 C 89.59375 339.253906 87.085938 336.292969 84.738281 332.769531 C 83.070312 334.285156 81.464844 335.890625 80.363281 337.796875 " fill-opacity="1" fill-rule="nonzero"/><path fill="#ffffff" d="M 151.761719 208.921875 C 148.011719 202.371094 149.441406 193.191406 155.148438 187.105469 C 159.929688 181.988281 167.203125 179.039062 175.609375 178.777344 C 176.3125 178.75 177.015625 178.75 177.753906 178.738281 C 181.277344 178.714844 184.617188 178.675781 186.9375 176.871094 C 187.386719 176.519531 187.765625 176.105469 188.128906 175.640625 C 176.726562 170.847656 165.574219 165.378906 154.785156 159.308594 C 150.746094 159.546875 147.082031 160.125 143.195312 160.75 C 142.105469 160.9375 140.988281 161.113281 139.847656 161.289062 C 122.496094 163.960938 105.5625 168.917969 89.53125 176.066406 C 85.140625 178.023438 80.550781 180.269531 76.6875 183.355469 C 74.089844 185.4375 70.777344 188.835938 69.132812 193.351562 C 69.171875 193.414062 69.195312 193.492188 69.210938 193.566406 C 73.0625 191.984375 75.972656 191.507812 76.195312 192.125 C 76.511719 193.015625 71.792969 195.546875 66.125 198.820312 C 63.0625 200.566406 60.351562 202.171875 58.382812 203.164062 C 56.601562 204.832031 54.859375 206.699219 53.191406 208.792969 C 49.1875 213.800781 45.914062 219.519531 42.765625 225.078125 C 50.179688 237.195312 60.402344 247.46875 72.484375 254.945312 C 75.644531 250.503906 78.894531 246 83.195312 242.5625 C 83.347656 242.351562 83.511719 242.113281 83.671875 241.875 C 87.4375 236.339844 88.402344 230.773438 89.378906 230.820312 C 89.792969 230.871094 90.144531 232.378906 89.871094 234.8125 C 89.730469 236.078125 89.355469 237.582031 88.765625 239.175781 C 92.253906 237.582031 95.917969 236.78125 99.492188 236.027344 C 101.574219 235.589844 103.519531 235.175781 105.425781 234.609375 C 115.824219 231.585938 124.730469 224.011719 129.472656 214.265625 C 127.152344 213.773438 125.03125 213.5 123.351562 213.410156 C 120.902344 213.273438 119.296875 213.375 119.183594 212.898438 C 119.046875 212.507812 120.488281 211.554688 123.1875 211.050781 C 125.859375 210.539062 129.710938 210.703125 133.648438 211.867188 C 135.441406 212.382812 137.0625 213.035156 138.527344 213.738281 C 148.902344 217.398438 159.855469 221.113281 171.066406 223.570312 C 167.757812 221.753906 164.507812 219.859375 161.359375 217.828125 C 157.921875 215.617188 154.058594 212.921875 151.761719 208.921875 " fill-opacity="1" fill-rule="nonzero"/><path fill="#ffffff" d="M 66.074219 337.320312 C 67.742188 340.320312 69.308594 343.355469 70.804688 346.429688 C 71.628906 345.652344 72.609375 344.9375 73.777344 344.523438 C 74.527344 344.257812 75.382812 344.183594 76.210938 344.285156 C 75.695312 341.761719 76.234375 338.914062 77.777344 336.292969 C 79.207031 333.871094 81.253906 331.929688 83.132812 330.183594 C 82.71875 329.519531 82.316406 328.816406 81.917969 328.101562 C 77.738281 332.667969 72.105469 335.941406 66.074219 337.320312 " fill-opacity="1" fill-rule="nonzero"/><path fill="#ffffff" d="M 91.539062 329.03125 C 90.824219 326.734375 89.140625 324.714844 86.996094 323.609375 C 86.507812 323.359375 85.992188 323.171875 85.480469 322.945312 C 87.460938 326.910156 89.554688 330.246094 91.8125 333.058594 C 92.015625 331.714844 91.941406 330.320312 91.539062 329.03125 " fill-opacity="1" fill-rule="nonzero"/><path fill="#ffffff" d="M 97.382812 345.550781 C 96.832031 345.175781 96.28125 344.796875 95.726562 344.421875 C 95.363281 344.171875 95.011719 343.871094 94.648438 343.59375 C 93.507812 346.226562 93.757812 349.402344 95.351562 351.796875 L 95.703125 352.300781 C 96.394531 353.289062 97.269531 354.519531 97.144531 356.101562 C 97.007812 358.042969 95.464844 359.3125 94.308594 360.089844 L 93.644531 360.527344 C 92.417969 361.34375 91.261719 362.097656 90.683594 363.164062 C 90.234375 364.015625 90.132812 365.105469 90.03125 366.273438 C 89.996094 366.824219 89.933594 367.390625 89.855469 367.941406 C 89.53125 370.035156 88.640625 372.03125 87.335938 373.710938 C 89.554688 373.574219 91.777344 373.347656 93.558594 372.445312 C 96.582031 370.851562 98.363281 367.390625 100.207031 363.339844 C 102.402344 358.558594 104.332031 353.164062 102.050781 349.566406 C 101.058594 347.996094 99.277344 346.804688 97.382812 345.550781 " fill-opacity="1" fill-rule="nonzero"/><path fill="#ffffff" d="M 80.4375 325.292969 C 79.847656 324.125 79.269531 322.882812 78.691406 321.605469 C 78.617188 321.414062 78.554688 321.242188 78.46875 321.066406 C 74.503906 326.082031 68.734375 329.695312 62.484375 331.074219 C 63.1875 332.253906 63.902344 333.421875 64.582031 334.613281 C 70.703125 333.421875 76.398438 330.046875 80.4375 325.292969 " fill-opacity="1" fill-rule="nonzero"/><path fill="#ffffff" d="M 70.324219 358.835938 C 70.011719 358.042969 69.671875 357.28125 69.335938 356.5 C 68.382812 357.152344 67.640625 357.96875 67.128906 358.660156 C 66.363281 359.738281 65.761719 360.941406 65.246094 362.148438 C 65.371094 364.292969 65.445312 366.472656 65.585938 368.621094 C 65.621094 369.171875 65.660156 369.75 65.761719 370.273438 C 66.5625 368.71875 67.90625 367.503906 69.023438 366.523438 C 69.914062 365.734375 70.851562 364.917969 71.214844 364.179688 C 71.84375 362.863281 71.179688 360.84375 70.324219 358.835938 " fill-opacity="1" fill-rule="nonzero"/><path fill="#ffffff" d="M 68.117188 353.742188 C 66.976562 351.222656 65.785156 348.722656 64.53125 346.253906 C 64.65625 349.714844 64.769531 353.191406 64.957031 356.664062 C 65.886719 355.4375 66.953125 354.457031 68.117188 353.742188 " fill-opacity="1" fill-rule="nonzero"/></svg>