<svg xmlns="http://www.w3.org/2000/svg" xmlns:xlink="http://www.w3.org/1999/xlink" width="500" zoomAndPan="magnify" viewBox="0 0 375 374.999991" height="500" preserveAspectRatio="xMidYMid meet" version="1.0"><defs><clipPath id="73a691140d"><path d="M 312 135 L 356.828125 135 L 356.828125 175 L 312 175 Z M 312 135 " clip-rule="nonzero"/></clipPath><clipPath id="8d42a10592"><path d="M 70 346 L 95 346 L 95 374.25 L 70 374.25 Z M 70 346 " clip-rule="nonzero"/></clipPath></defs><path fill="#000000" d="M 54.796875 60.492188 C 52.84375 57.835938 51.765625 54.511719 51.925781 51.175781 C 51.964844 50.160156 52.128906 49.195312 52.289062 48.242188 C 52.480469 46.9375 52.679688 45.710938 52.578125 44.53125 C 52.429688 42.640625 51.4375 40.832031 49.972656 39.628906 C 49.871094 41.523438 49.609375 43.429688 49.132812 45.335938 C 48.882812 46.335938 48.542969 47.390625 48.230469 48.417969 C 47.316406 51.339844 46.4375 54.074219 47.253906 56.292969 C 48.242188 58.964844 51.449219 60.230469 54.796875 60.492188 " fill-opacity="1" fill-rule="nonzero"/><path fill="#000000" d="M 85.5625 65.945312 C 86.675781 64.90625 87.605469 63.589844 88.417969 62.199219 C 90.773438 58.273438 92.71875 54.085938 94.195312 49.773438 C 91.589844 48.367188 88.96875 46.9375 86.402344 45.535156 C 86.3125 45.484375 86.25 45.433594 86.175781 45.398438 C 86.074219 45.335938 85.964844 45.296875 85.863281 45.210938 C 85.761719 45.160156 85.6875 45.097656 85.601562 45.007812 L 76.992188 60.179688 C 80.273438 61.484375 83.042969 63.675781 85.5625 65.945312 " fill-opacity="1" fill-rule="nonzero"/><path fill="#000000" d="M 71.0625 50.8125 C 71.328125 52.304688 71.703125 53.144531 72.191406 53.296875 C 72.730469 53.496094 73.65625 52.90625 74.746094 51.691406 C 78.117188 47.90625 81.390625 43.941406 84.433594 39.917969 C 84.558594 39.742188 84.734375 39.605469 84.910156 39.492188 C 84.535156 38.664062 83.84375 37.835938 83.066406 37.324219 C 81.726562 36.46875 80.011719 35.980469 78.21875 35.453125 C 77.128906 35.140625 76.011719 34.828125 74.910156 34.390625 L 74.886719 34.390625 C 74.824219 34.425781 74.785156 34.515625 74.710938 34.550781 C 72.605469 35.929688 71.101562 38.527344 70.613281 41.648438 C 70.148438 44.457031 70.472656 47.351562 71.0625 50.8125 " fill-opacity="1" fill-rule="nonzero"/><path fill="#000000" d="M 37.628906 93.628906 C 37.777344 94.144531 38.242188 94.582031 38.582031 94.546875 C 38.917969 94.519531 39.410156 94.105469 39.871094 93.742188 C 44.582031 89.90625 50.324219 87.425781 56.289062 86.597656 L 56.289062 85.882812 C 51.578125 84.390625 46.75 82.746094 42.402344 79.988281 C 41.6875 79.550781 41.011719 79.085938 40.386719 78.609375 C 39.15625 82.609375 38.21875 86.734375 37.628906 90.871094 C 37.464844 91.898438 37.367188 92.878906 37.628906 93.628906 " fill-opacity="1" fill-rule="nonzero"/><path fill="#000000" d="M 56.261719 16.472656 C 56.386719 19.09375 56.5 22.0625 55.613281 24.871094 C 54.621094 28.007812 52.378906 30.363281 49.734375 31.179688 C 49.882812 32.722656 50.011719 34.3125 50.046875 35.917969 C 53.21875 37.460938 55.460938 40.746094 55.738281 44.28125 C 55.875 45.824219 55.636719 47.316406 55.410156 48.746094 C 55.261719 49.636719 55.136719 50.488281 55.097656 51.339844 C 54.933594 54.699219 56.402344 58.097656 58.945312 60.328125 C 60.074219 60.179688 61.199219 59.992188 62.402344 59.777344 C 66.113281 59.152344 69.933594 58.488281 73.871094 59.238281 L 76.789062 54.125 C 75.285156 55.691406 73.820312 56.53125 72.402344 56.53125 C 71.976562 56.53125 71.5625 56.441406 71.136719 56.292969 C 68.644531 55.414062 68.128906 52.480469 67.929688 51.378906 C 67.277344 47.566406 66.964844 44.382812 67.480469 41.148438 C 68.019531 37.761719 69.558594 34.828125 71.738281 32.859375 C 63.71875 28.144531 59.046875 18.339844 60.898438 9.0625 C 61.039062 8.335938 61.238281 7.582031 61.414062 6.84375 C 61.714844 5.675781 61.988281 4.585938 62.078125 3.558594 C 62.117188 2.945312 62.054688 2.367188 61.925781 1.867188 C 59.835938 3.972656 57.679688 6.355469 56.777344 9.164062 C 56.074219 11.445312 56.164062 14.003906 56.261719 16.472656 " fill-opacity="1" fill-rule="nonzero"/><path fill="#000000" d="M 49.371094 27.945312 C 50.773438 27.28125 52.003906 25.789062 52.605469 23.90625 C 53.316406 21.625 53.21875 19.066406 53.117188 16.609375 C 52.992188 14.003906 52.878906 11.03125 53.746094 8.210938 C 54.785156 4.960938 57.066406 2.304688 59.21875 0.0976562 C 58.882812 0.148438 58.542969 0.1875 58.191406 0.261719 C 53.15625 1.453125 50.210938 6.59375 49.195312 10.605469 C 47.90625 15.820312 48.59375 21.488281 49.257812 26.953125 C 49.296875 27.28125 49.332031 27.617188 49.371094 27.945312 " fill-opacity="1" fill-rule="nonzero"/><path fill="#000000" d="M 23.78125 69.167969 C 23.882812 68.417969 23.804688 67.5625 23.71875 66.699219 C 23.617188 65.609375 23.519531 64.492188 23.71875 63.328125 C 24.019531 61.394531 24.984375 59.878906 25.9375 58.386719 C 26.300781 57.835938 26.636719 57.28125 26.953125 56.71875 C 27.777344 55.203125 28.09375 53.183594 27.128906 52.269531 C 27.066406 52.191406 27.027344 52.105469 26.976562 52.03125 C 26.890625 51.953125 26.8125 51.867188 26.75 51.816406 C 22 56.46875 18.96875 63.5625 18.21875 71.890625 C 18.117188 72.957031 18.054688 74.035156 18.015625 75.113281 C 19.082031 74.597656 20.132812 74.046875 21.023438 73.355469 C 21.9375 72.667969 23.480469 71.199219 23.78125 69.167969 " fill-opacity="1" fill-rule="nonzero"/><path fill="#000000" d="M 22.902344 102.910156 C 23.128906 103.019531 23.378906 103.058594 23.617188 103.121094 L 20.972656 85.441406 C 20.910156 85.042969 20.835938 84.476562 20.648438 84.25 C 20.472656 84.050781 19.882812 83.902344 18.769531 84.050781 L 18.394531 84.113281 L 18.378906 84.113281 C 18.757812 88.175781 19.382812 92.238281 20.023438 96.226562 C 20.472656 99.160156 21.125 101.96875 22.902344 102.910156 " fill-opacity="1" fill-rule="nonzero"/><path fill="#000000" d="M 76.628906 318.371094 C 76.765625 318.195312 76.964844 318.046875 77.164062 317.957031 C 76.214844 315.675781 75.296875 313.394531 74.433594 311.175781 C 72.515625 306.234375 70.523438 301.144531 68.09375 296.429688 C 63.417969 287.414062 57.652344 281.273438 50.960938 278.148438 C 50.285156 277.835938 49.785156 277.285156 49.546875 276.632812 C 49.195312 276.15625 48.957031 275.480469 48.917969 274.703125 C 48.894531 274.175781 48.996094 273.699219 49.15625 273.261719 C 46.863281 273.023438 45.511719 272.445312 45.546875 272.03125 C 45.675781 271.078125 51.675781 271.214844 58.332031 268.644531 C 59.046875 268.382812 59.695312 268.09375 60.347656 267.820312 C 63.554688 265.789062 66.765625 262.617188 70.046875 258.113281 C 70.273438 257.824219 70.488281 257.523438 70.6875 257.222656 C 58.757812 249.800781 48.59375 239.734375 41.074219 227.859375 C 39.671875 230.28125 38.242188 232.699219 36.800781 235.09375 C 32.929688 241.589844 28.90625 248.285156 25.699219 255.066406 C 24.835938 256.886719 24.21875 258.953125 23.566406 261.148438 C 23.128906 262.617188 22.667969 264.144531 22.140625 265.613281 C 20.886719 268.960938 19.757812 273.9375 21.363281 278.675781 C 22.867188 283.128906 26.636719 286.777344 30.261719 290.324219 L 31.074219 291.101562 C 42.367188 302.132812 52.367188 314.683594 60.789062 328.199219 C 67.039062 327.109375 72.90625 323.523438 76.628906 318.371094 " fill-opacity="1" fill-rule="nonzero"/><path fill="#000000" d="M 23.09375 82.234375 C 23.820312 83.125 23.996094 84.1875 24.09375 84.992188 L 26.828125 103.097656 C 27.339844 103.019531 27.878906 102.921875 28.417969 102.808594 C 28.996094 102.707031 29.546875 102.605469 30.097656 102.507812 C 33.644531 101.917969 37.164062 102.09375 40.574219 102.769531 C 40.523438 102.480469 40.5 102.207031 40.597656 101.917969 C 40.699219 101.679688 40.8125 101.453125 40.898438 101.203125 C 41.386719 98.921875 42.367188 96.738281 43.695312 94.820312 C 43.09375 95.261719 42.503906 95.6875 41.925781 96.164062 C 41.113281 96.816406 40.160156 97.59375 38.855469 97.71875 C 38.757812 97.71875 38.644531 97.730469 38.542969 97.730469 C 36.652344 97.730469 35.148438 96.226562 34.621094 94.660156 C 34.144531 93.230469 34.28125 91.789062 34.484375 90.421875 C 35.148438 85.78125 36.226562 81.15625 37.628906 76.679688 C 37.667969 76.578125 37.742188 76.503906 37.777344 76.402344 C 34.496094 73.257812 32.265625 69.53125 31.363281 65.570312 C 31.039062 64.003906 30.910156 62.5 30.800781 61.03125 C 30.710938 60.230469 30.660156 59.425781 30.546875 58.625 C 30.472656 58.074219 30.371094 57.558594 30.261719 57.070312 C 30.097656 57.484375 29.921875 57.871094 29.746094 58.234375 C 29.382812 58.863281 29.007812 59.476562 28.617188 60.078125 C 27.804688 61.359375 27.050781 62.550781 26.851562 63.828125 C 26.714844 64.617188 26.789062 65.484375 26.890625 66.398438 C 26.976562 67.425781 27.066406 68.492188 26.914062 69.632812 C 26.589844 71.941406 25.183594 74.144531 22.96875 75.875 C 21.425781 77.042969 19.722656 77.859375 18.015625 78.585938 C 18.042969 79.375 18.078125 80.152344 18.117188 80.941406 L 18.292969 80.929688 C 20.472656 80.589844 22.101562 81.042969 23.09375 82.234375 " fill-opacity="1" fill-rule="nonzero"/><path fill="#000000" d="M 164.722656 155.230469 C 164.898438 154.527344 165.113281 153.8125 165.351562 153.121094 C 165.8125 151.730469 166.226562 150.425781 166.128906 149.171875 C 166.089844 148.621094 165.925781 148.105469 165.726562 147.566406 C 165.511719 148.644531 165.113281 149.574219 164.636719 150.289062 C 163.433594 152.054688 162.042969 152.34375 161.828125 152.007812 C 161.527344 151.617188 162.167969 150.726562 162.492188 149.273438 C 162.871094 147.855469 162.957031 145.726562 162.242188 143.59375 C 161.941406 142.703125 161.554688 141.851562 161.152344 141.046875 C 161.191406 141.648438 161.214844 142.238281 161.175781 142.753906 C 161.050781 145.136719 160.402344 146.503906 159.960938 146.441406 C 159.484375 146.390625 159.285156 145.023438 158.808594 142.953125 C 158.359375 140.898438 157.542969 138.140625 156.277344 135.167969 C 155.800781 134.039062 155.3125 132.988281 154.8125 131.957031 C 152.457031 128.386719 150.238281 124.722656 148.144531 120.976562 C 142.09375 126.402344 138.292969 134.289062 137.742188 142.402344 C 146.390625 148.132812 155.324219 153.421875 164.472656 158.273438 C 164.398438 157.246094 164.472656 156.195312 164.722656 155.230469 " fill-opacity="1" fill-rule="nonzero"/><path fill="#000000" d="M 237.230469 131.65625 C 237.15625 131.757812 237.082031 131.859375 236.992188 131.957031 C 236.441406 132.574219 235.914062 133.097656 235.441406 133.5625 C 236.46875 134.253906 237.695312 134.628906 238.9375 134.667969 C 238.558594 134.113281 238.183594 133.464844 237.796875 132.722656 C 237.609375 132.371094 237.433594 132.019531 237.230469 131.65625 " fill-opacity="1" fill-rule="nonzero"/><path fill="#000000" d="M 230.566406 130.089844 C 229.574219 130.742188 228.660156 131.34375 227.910156 131.832031 C 227.734375 131.957031 227.570312 132.058594 227.394531 132.160156 C 227.53125 132.308594 227.609375 132.484375 227.695312 132.6875 C 229.3125 133.148438 231.054688 133.125 232.644531 132.609375 C 232.707031 132.597656 232.746094 132.597656 232.796875 132.597656 C 232.921875 132.535156 233.035156 132.535156 233.160156 132.484375 C 233.210938 132.257812 233.273438 132.035156 233.335938 131.757812 C 233.535156 130.929688 233.699219 129.953125 233.710938 128.886719 C 233.734375 128.660156 233.710938 128.472656 233.671875 128.285156 C 233.335938 128.433594 232.65625 128.847656 232.144531 129.136719 C 231.59375 129.476562 231.078125 129.800781 230.566406 130.089844 " fill-opacity="1" fill-rule="nonzero"/><path fill="#000000" d="M 73.003906 293.871094 C 73.558594 294.9375 74.09375 296.027344 74.609375 297.144531 C 74.609375 295.613281 74.632812 294.097656 74.648438 292.582031 C 74.671875 290.699219 74.710938 288.84375 74.683594 286.976562 C 74.648438 280.65625 74.03125 272.808594 70.25 266.589844 C 65.976562 271.203125 61.613281 274.074219 57.101562 275.242188 C 63.28125 279.203125 68.632812 285.433594 73.003906 293.871094 " fill-opacity="1" fill-rule="nonzero"/><path fill="#000000" d="M 266.09375 131.996094 C 266.078125 131.996094 266.078125 131.996094 266.054688 131.996094 C 266.054688 132.988281 266.015625 133.976562 265.941406 134.941406 C 269.539062 133.085938 273.546875 131.996094 277.609375 131.796875 C 273.785156 131.117188 269.839844 131.144531 266.09375 131.996094 " fill-opacity="1" fill-rule="nonzero"/><path fill="#000000" d="M 232.480469 125.175781 C 232.957031 124.988281 233.609375 124.800781 234.425781 124.9375 C 235.214844 125.0625 235.992188 125.640625 236.34375 126.253906 C 236.617188 126.769531 236.742188 127.207031 236.804688 127.59375 C 236.980469 127.53125 237.15625 127.53125 237.355469 127.519531 C 237.382812 126.96875 237.394531 126.429688 237.457031 125.953125 C 237.09375 125.992188 236.855469 125.953125 236.78125 125.816406 C 236.605469 125.515625 237.117188 124.863281 238.132812 123.972656 C 238.460938 123.671875 238.960938 123.707031 239.261719 124.035156 C 239.363281 124.148438 239.414062 124.285156 239.449219 124.421875 L 239.511719 124.800781 C 239.675781 125.890625 239.886719 127.355469 240.328125 128.988281 C 240.566406 129.800781 240.816406 130.667969 241.179688 131.542969 C 241.515625 132.472656 241.957031 133.289062 242.246094 133.464844 C 242.34375 133.539062 242.507812 133.589844 242.546875 133.589844 C 242.65625 133.5 242.945312 132.847656 243.195312 132.160156 C 243.773438 130.742188 244.324219 129.476562 244.839844 128.433594 C 245.878906 126.328125 246.730469 125.113281 247.15625 125.261719 C 247.558594 125.402344 247.558594 126.53125 247.246094 128.335938 C 247.417969 128.960938 247.558594 129.800781 247.53125 130.828125 C 247.53125 131.457031 247.457031 132.171875 247.292969 132.925781 C 247.15625 133.703125 246.84375 134.492188 246.707031 135.09375 C 246.503906 135.746094 246.59375 136.121094 246.667969 136.160156 C 246.707031 136.234375 247.15625 136.535156 247.972656 136.796875 C 248.347656 136.949219 248.660156 137.035156 248.886719 137.074219 L 249.0625 137.085938 C 249.097656 137.046875 249.136719 136.984375 249.1875 136.886719 C 249.300781 136.699219 249.425781 136.320312 249.539062 135.984375 C 249.988281 134.617188 250.289062 133.335938 250.503906 132.257812 C 250.929688 130.078125 251.066406 128.585938 251.542969 128.523438 C 251.980469 128.449219 252.683594 129.878906 252.871094 132.398438 C 252.945312 133.527344 252.847656 134.90625 252.570312 136.371094 C 252.769531 137.011719 253.019531 137.738281 253.386719 138.578125 C 253.898438 139.78125 254.652344 141.199219 255.652344 142.664062 C 256.128906 143.417969 256.628906 143.894531 256.90625 143.90625 C 256.96875 143.933594 256.980469 143.933594 257.007812 143.90625 C 257.03125 143.90625 257.121094 143.769531 257.167969 143.59375 C 257.28125 143.21875 257.082031 142.125 256.929688 141.148438 C 256.769531 140.15625 256.59375 139.207031 256.390625 138.316406 C 256.015625 136.496094 255.679688 134.855469 255.378906 133.464844 C 254.824219 130.667969 254.652344 128.863281 255.089844 128.722656 C 255.515625 128.585938 256.492188 130.117188 257.644531 132.773438 C 258.210938 134.101562 258.824219 135.707031 259.386719 137.5625 C 259.664062 138.492188 259.914062 139.480469 260.152344 140.523438 C 260.175781 140.671875 260.214844 140.835938 260.238281 141 C 260.453125 140.949219 260.664062 140.949219 260.890625 140.972656 C 261.027344 140.734375 261.140625 140.257812 261.203125 140.007812 C 262.230469 135.542969 262.394531 130.929688 261.691406 126.429688 C 260.527344 124.171875 259.148438 122.277344 257.519531 120.824219 C 254.964844 118.480469 251.78125 117.226562 248.8125 117.3125 C 246.441406 117.390625 243.972656 118.316406 241.59375 119.21875 C 237.59375 120.722656 233.445312 122.277344 229.914062 124.5625 C 227.707031 125.976562 224.9375 128.234375 223.171875 131.34375 C 223.910156 131.320312 224.664062 131.34375 225.414062 131.40625 C 226.367188 129.714844 228.636719 127.15625 232.480469 125.175781 " fill-opacity="1" fill-rule="nonzero"/><path fill="#000000" d="M 285.191406 143.503906 C 284.023438 144.15625 283.886719 146.101562 284.5625 147.429688 C 285.429688 149.097656 287.257812 150.3125 288.863281 151.378906 L 301.003906 159.429688 C 304.214844 161.546875 307.421875 163.691406 310.605469 165.8125 C 311.179688 166.199219 311.730469 166.574219 312.308594 166.953125 C 311.957031 166.4375 311.617188 165.921875 311.320312 165.371094 C 307.847656 158.890625 308.421875 150.589844 312.710938 145.160156 C 309.890625 146.363281 307.382812 148.320312 305.589844 150.828125 C 305.066406 151.582031 304.214844 151.96875 303.335938 151.96875 C 302.785156 151.96875 302.234375 151.820312 301.730469 151.453125 C 301.617188 151.378906 301.53125 151.242188 301.417969 151.140625 C 300.628906 150.902344 299.925781 150.351562 299.589844 149.511719 C 299.511719 149.359375 299.4375 149.199219 299.351562 149.023438 C 296.128906 147.105469 292.757812 145.386719 289.273438 143.980469 C 287.847656 143.417969 286.269531 142.917969 285.191406 143.503906 " fill-opacity="1" fill-rule="nonzero"/><path fill="#000000" d="M 155.3125 126.832031 C 155.488281 127.117188 155.664062 127.417969 155.839844 127.71875 C 156.402344 128.472656 156.953125 129.339844 157.503906 130.289062 C 160.101562 134.214844 162.832031 138.0625 165.726562 141.761719 C 167.292969 143.78125 169.058594 146.0625 169.296875 148.921875 C 169.4375 150.804688 168.898438 152.46875 168.359375 154.101562 C 168.171875 154.726562 167.96875 155.367188 167.808594 155.980469 C 167.394531 157.636719 167.59375 159.617188 168.734375 160.230469 C 168.960938 160.371094 169.136719 160.558594 169.273438 160.757812 C 176.203125 164.28125 183.257812 167.566406 190.414062 170.585938 C 190.464844 170.425781 190.550781 170.261719 190.613281 170.085938 C 191.101562 168.65625 191.578125 167.214844 192.054688 165.785156 C 194.488281 158.550781 196.980469 151.066406 201.441406 144.597656 C 204.613281 140.007812 209.488281 135.40625 215.363281 133.011719 C 209.925781 124.699219 204.234375 116.199219 197.207031 109.152344 C 193.734375 105.679688 189.851562 102.507812 185.953125 99.449219 C 182.957031 104.136719 179.058594 108.074219 175.25 111.898438 C 169.6875 117.488281 163.394531 123.808594 155.3125 126.832031 " fill-opacity="1" fill-rule="nonzero"/><path fill="#000000" d="M 64.371094 92.402344 C 62.203125 91.648438 60.074219 90.910156 57.953125 90.105469 C 57.792969 90.019531 57.617188 89.945312 57.480469 89.84375 C 51.4375 91.5625 46.261719 96.289062 43.945312 102.132812 C 43.84375 102.582031 43.78125 103.058594 43.730469 103.535156 C 47.929688 104.75 51.925781 106.59375 55.550781 108.613281 C 56.1875 107.144531 56.6875 105.589844 57.152344 103.949219 C 57.453125 102.945312 57.765625 101.929688 58.105469 100.925781 C 59.558594 96.753906 61.652344 93.90625 64.371094 92.402344 " fill-opacity="1" fill-rule="nonzero"/><path fill="#000000" d="M 87.917969 68.128906 L 89.046875 69.195312 C 99.410156 78.859375 111.964844 86.433594 125.335938 91.136719 L 126.089844 91.386719 C 127.757812 91.960938 129.496094 92.578125 131.175781 93.328125 C 131.089844 93.027344 130.9375 92.714844 130.863281 92.4375 C 130.1875 90.15625 130.289062 88.652344 130.726562 88.550781 C 131.652344 88.3125 133.496094 93.429688 137.996094 98.007812 C 142.417969 102.671875 147.46875 104.664062 147.203125 105.589844 C 147.09375 106.019531 145.589844 106.066406 143.320312 105.339844 C 143.183594 105.277344 143.007812 105.203125 142.867188 105.140625 C 144.699219 107.835938 146.203125 110.707031 147.65625 113.503906 L 148.660156 115.371094 C 150.210938 118.34375 151.902344 121.238281 153.621094 124.109375 C 153.660156 124.109375 153.683594 124.070312 153.722656 124.046875 C 161.390625 121.351562 167.570312 115.15625 172.996094 109.667969 C 176.765625 105.890625 180.601562 102.003906 183.433594 97.515625 C 182.769531 97.015625 182.105469 96.5 181.453125 96 C 178.207031 93.53125 174.835938 90.945312 171.617188 88.265625 C 170.085938 86.972656 168.582031 85.644531 167.078125 84.328125 C 162.21875 80.078125 157.644531 76.027344 152.253906 73.195312 C 147.429688 70.660156 142.15625 69.195312 136.566406 67.640625 C 134.648438 67.113281 132.730469 66.574219 130.824219 65.996094 C 118.984375 62.398438 107.804688 57.007812 97.027344 51.277344 C 95.488281 55.652344 93.519531 59.851562 91.152344 63.828125 C 90.261719 65.308594 89.222656 66.835938 87.917969 68.128906 " fill-opacity="1" fill-rule="nonzero"/><path fill="#000000" d="M 122.769531 125.992188 C 121.164062 126.878906 119.058594 127.769531 116.628906 128.449219 C 120.664062 130.554688 124.449219 133.210938 128.132812 135.820312 L 129.421875 136.734375 C 131.164062 137.964844 132.945312 139.167969 134.722656 140.382812 C 135.761719 132.019531 139.898438 124.035156 146.214844 118.457031 C 145.261719 116.914062 144.535156 115.269531 143.832031 113.664062 C 143.21875 112.210938 142.605469 110.832031 141.878906 109.578125 C 141.679688 109.265625 141.503906 108.988281 141.328125 108.6875 C 141 108.238281 140.6875 107.824219 140.335938 107.421875 C 138.871094 105.816406 136.765625 104.601562 134.109375 103.796875 C 133.105469 103.496094 132.078125 103.285156 131.027344 103.097656 C 130.113281 103.121094 129.195312 103.160156 128.292969 103.160156 C 107.792969 103.160156 87.101562 99.847656 67.589844 93.492188 C 67.542969 94.070312 67.203125 94.59375 66.625 94.820312 C 64.296875 95.75 62.429688 98.167969 61.101562 101.96875 C 60.789062 102.921875 60.488281 103.898438 60.210938 104.863281 C 59.671875 106.644531 59.121094 108.449219 58.332031 110.191406 C 58.984375 110.59375 59.632812 110.996094 60.273438 111.382812 C 61.351562 112.074219 62.464844 112.777344 63.570312 113.464844 C 70.726562 118.027344 78.117188 122.71875 86.214844 123.882812 C 89.171875 124.324219 92.203125 124.285156 95.410156 124.246094 C 99.207031 124.210938 103.132812 124.171875 107.054688 124.9375 C 108.480469 125.214844 109.835938 125.640625 111.175781 126.089844 C 111.277344 126.066406 111.378906 126.066406 111.488281 126.054688 C 119.710938 125.113281 125.914062 122.066406 126.402344 122.894531 C 126.628906 123.269531 125.3125 124.585938 122.769531 125.992188 " fill-opacity="1" fill-rule="nonzero"/><path fill="#000000" d="M 337.382812 205.917969 C 337.195312 205.957031 337.070312 206.058594 337.007812 206.09375 C 336.96875 206.132812 336.96875 206.121094 336.957031 206.195312 C 336.894531 206.332031 337.109375 206.882812 337.445312 207.222656 C 337.710938 207.5 338.125 207.824219 338.5625 208.164062 C 339.3125 208.4375 339.941406 208.851562 340.453125 209.265625 C 341.09375 209.804688 341.570312 210.394531 341.921875 211.007812 L 342.597656 209.328125 C 342.007812 208.726562 341.367188 208.136719 340.59375 207.523438 C 339.390625 206.535156 338 205.65625 337.382812 205.917969 " fill-opacity="1" fill-rule="nonzero"/><path fill="#000000" d="M 210.578125 215.535156 C 209.9375 216.324219 209.273438 217.078125 208.558594 217.804688 C 208.058594 221.179688 206.65625 224.386719 204.511719 227.046875 C 204.648438 227.207031 204.75 227.359375 204.851562 227.523438 C 204.960938 227.484375 205.0625 227.445312 205.1875 227.398438 C 206.804688 226.015625 208.171875 224.3125 209.109375 222.367188 C 210.125 220.25 210.613281 217.894531 210.578125 215.535156 " fill-opacity="1" fill-rule="nonzero"/><path fill="#000000" d="M 261.742188 233.878906 C 261.71875 233.867188 261.71875 233.867188 261.691406 233.839844 C 261.566406 233.867188 261.429688 233.902344 261.28125 233.902344 C 259.160156 233.804688 257.355469 235.710938 256.46875 236.835938 C 255.992188 237.453125 255.566406 238.078125 255.101562 238.71875 C 254.148438 240.109375 253.148438 241.550781 251.78125 242.71875 C 250.390625 243.933594 248.449219 244.761719 246.542969 244.761719 C 245.402344 244.761719 244.261719 244.449219 243.273438 243.734375 C 242.09375 242.855469 241.417969 241.628906 240.839844 240.546875 C 240.464844 239.847656 240.113281 239.207031 239.675781 238.71875 C 239.023438 237.980469 238.070312 237.464844 237.054688 236.914062 L 236.265625 236.5 C 234.9375 235.746094 233.097656 234.519531 232.417969 232.4375 C 232.144531 231.585938 232.132812 230.730469 232.105469 229.980469 C 232.105469 229.753906 232.105469 229.527344 232.09375 229.328125 C 232.042969 228.375 231.832031 227.972656 231.628906 227.824219 C 231.605469 227.773438 231.53125 227.761719 231.46875 227.761719 C 231.453125 227.796875 231.417969 227.824219 231.390625 227.835938 C 231.277344 229.328125 231.015625 231.070312 230.328125 232.738281 C 229.4375 234.867188 227.945312 236.523438 226.140625 237.375 C 225.25 237.789062 224.300781 237.980469 223.347656 237.980469 C 221.96875 237.980469 220.601562 237.550781 219.585938 236.675781 C 218.121094 235.445312 217.40625 233.425781 217.40625 230.96875 C 217.40625 230.90625 217.40625 230.832031 217.40625 230.769531 C 214.136719 229.203125 210.300781 228.953125 206.832031 229.980469 C 207.003906 230.28125 207.144531 230.605469 207.230469 230.980469 C 207.996094 235.570312 208.835938 240.285156 210.539062 244.523438 C 211.804688 247.671875 214.160156 251.957031 218.222656 254.476562 C 219.625 255.34375 221.265625 256.019531 223.132812 256.472656 C 220.914062 255.191406 219.25 253.488281 218.296875 251.984375 C 216.878906 249.777344 216.71875 248.109375 217.117188 247.957031 C 217.570312 247.734375 218.460938 248.949219 220.125 250.464844 C 221.742188 251.996094 224.261719 253.828125 227.40625 254.730469 C 228.320312 255.003906 229.210938 255.144531 230.089844 255.269531 C 230 255.207031 229.914062 255.144531 229.824219 255.09375 C 227.558594 253.398438 226.980469 251.65625 227.320312 251.445312 C 227.707031 251.128906 228.875 252.171875 230.992188 253.023438 C 233.097656 253.914062 236.265625 254.515625 239.738281 254.078125 C 243.234375 253.625 246.40625 252.445312 248.785156 251.695312 C 250.226562 251.21875 251.378906 250.90625 252.105469 250.828125 C 254.589844 249.261719 256.882812 247.457031 258.949219 245.414062 C 261.105469 243.269531 262.308594 241.515625 262.882812 239.734375 C 263.496094 237.804688 263.222656 235.773438 262.183594 234.617188 C 261.980469 234.394531 261.855469 234.140625 261.742188 233.878906 " fill-opacity="1" fill-rule="nonzero"/><path fill="#000000" d="M 218.320312 194.734375 C 218.285156 195.476562 218.257812 196.226562 218.183594 196.96875 C 217.734375 202.234375 215.929688 207.410156 213.109375 211.9375 C 213.171875 212.039062 213.234375 212.125 213.246094 212.238281 C 213.984375 216.0625 213.472656 220.125 211.78125 223.660156 C 211.304688 224.625 210.726562 225.554688 210.101562 226.429688 C 212.71875 226.292969 215.328125 226.730469 217.746094 227.722656 C 218.484375 224.335938 220.101562 221.179688 222.445312 218.621094 C 221.730469 211.722656 223.371094 204.753906 227.019531 198.898438 C 224.363281 198.683594 222.320312 197.355469 220.515625 196.089844 C 219.75 195.574219 219.035156 195.097656 218.320312 194.734375 " fill-opacity="1" fill-rule="nonzero"/><path fill="#000000" d="M 274.636719 195.023438 C 276.457031 189.84375 280.339844 185.230469 285.566406 181.984375 C 289.925781 179.277344 295.289062 177.484375 301.492188 176.605469 C 308.199219 175.652344 315.066406 175.917969 321.683594 177.308594 C 317.734375 174.210938 313.535156 171.339844 308.960938 168.28125 C 305.753906 166.148438 302.558594 164.019531 299.351562 161.898438 L 287.207031 153.863281 C 285.390625 152.644531 283.136719 151.152344 281.917969 148.785156 C 280.589844 146.203125 281.015625 142.441406 283.75 140.910156 C 285.929688 139.707031 288.421875 140.433594 290.378906 141.238281 C 292.507812 142.089844 294.578125 143.054688 296.617188 144.109375 C 295.003906 141.726562 293.035156 139.582031 290.804688 137.789062 C 287.234375 135.84375 283.171875 134.753906 279.085938 134.714844 C 274.273438 134.652344 269.527344 136.082031 265.503906 138.640625 C 265.402344 139.167969 265.300781 139.683594 265.191406 140.222656 C 265.191406 140.871094 265.203125 141.523438 265.289062 142.175781 C 265.429688 143.417969 265.777344 144.519531 266.191406 145.410156 C 266.628906 145.636719 267.070312 145.875 267.519531 146.125 C 269.164062 147.054688 270.890625 148.234375 272.597656 149.613281 C 275.980469 152.40625 278.472656 155.542969 279.964844 157.972656 C 281.429688 160.433594 281.945312 162.164062 281.542969 162.398438 C 280.742188 162.890625 276.792969 157.359375 270.453125 152.207031 C 268.886719 150.902344 267.320312 149.75 265.878906 148.722656 C 264.398438 147.730469 263.109375 146.804688 262.058594 146.339844 C 261.804688 146.25 261.566406 146.152344 261.316406 146.089844 C 260.578125 147.042969 259.539062 147.769531 258.371094 148.144531 C 257.871094 150.289062 256.492188 152.292969 254.414062 153.699219 C 252.292969 155.101562 249.875 155.753906 247.558594 156.230469 L 246.429688 156.46875 C 244.6875 156.808594 243.035156 157.148438 241.554688 157.761719 C 239.636719 158.550781 237.933594 159.84375 236.105469 161.183594 C 235.441406 161.710938 234.738281 162.199219 234.046875 162.703125 C 232.132812 164.019531 229.347656 165.710938 226.140625 166.050781 C 225.789062 169.808594 224.9375 173.519531 223.535156 177.042969 C 222.996094 178.421875 222.382812 179.777344 221.742188 181.144531 C 220.515625 183.816406 219.347656 186.359375 218.835938 189.054688 C 219.109375 189.066406 219.410156 189.105469 219.6875 189.230469 C 221.191406 189.832031 222.496094 190.722656 223.671875 191.527344 C 225.140625 192.542969 226.367188 193.355469 227.59375 193.417969 C 228.660156 193.394531 229.851562 192.640625 231.230469 191.765625 C 232.996094 190.660156 235.011719 189.394531 237.558594 189.269531 C 240.902344 189.09375 244.148438 191.074219 246.292969 194.484375 C 247.355469 196.164062 248.007812 197.945312 248.660156 199.664062 C 249.035156 199.664062 249.4375 199.75 249.8125 199.9375 C 257.757812 203.800781 266.191406 206.746094 274.851562 208.816406 C 273.171875 204.589844 273.035156 199.601562 274.636719 195.023438 " fill-opacity="1" fill-rule="nonzero"/><path fill="#000000" d="M 194.75 220.589844 C 194.675781 220.085938 196.628906 219.472656 199.398438 217.992188 C 202.15625 216.527344 205.738281 213.980469 208.460938 210.183594 C 211.167969 206.371094 212.394531 202.15625 212.871094 199.0625 C 213.371094 195.976562 213.308594 193.90625 213.796875 193.832031 C 213.933594 193.796875 214.136719 194.035156 214.363281 194.496094 C 214.375 194.257812 214.398438 194.046875 214.398438 193.832031 C 214.472656 192.101562 214.550781 190.320312 214.886719 188.542969 C 215.488281 185.28125 216.832031 182.335938 218.144531 179.476562 C 218.734375 178.199219 219.335938 176.90625 219.851562 175.589844 C 221.089844 172.441406 221.867188 169.171875 222.207031 165.824219 C 222.117188 165.207031 222.070312 164.59375 222.003906 163.96875 C 221.84375 162.035156 221.605469 160.457031 221.355469 159.253906 C 221.117188 158.0625 220.878906 157.222656 221.230469 156.910156 C 221.554688 156.609375 222.519531 156.984375 223.472656 158.210938 C 224.1875 159.128906 224.800781 160.53125 225.113281 162.097656 C 227.054688 162.085938 229.199219 161.246094 231.792969 159.429688 C 232.445312 158.964844 233.097656 158.488281 233.734375 158.011719 C 235.664062 156.570312 237.671875 155.089844 240.027344 154.101562 C 241.894531 153.335938 243.796875 152.945312 245.652344 152.582031 L 246.742188 152.34375 C 248.660156 151.957031 250.640625 151.441406 252.195312 150.402344 C 253.535156 149.472656 254.414062 148.167969 254.550781 146.902344 C 254.375 146.777344 254.199219 146.640625 254.074219 146.441406 L 250.691406 140.972656 C 250.527344 140.972656 250.351562 141 250.1875 141 C 247.144531 141 244.085938 139.644531 242.070312 137.363281 C 241.117188 137.664062 240.152344 137.863281 239.175781 137.863281 C 236.980469 137.863281 234.824219 137.113281 233.097656 135.746094 C 232.09375 136.019531 231.054688 136.195312 230.027344 136.195312 C 228.585938 136.195312 227.132812 135.921875 225.789062 135.382812 C 225.726562 135.382812 225.714844 135.40625 225.652344 135.382812 C 216.753906 134.351562 208.785156 140.910156 204.710938 146.867188 C 200.578125 152.847656 198.160156 160.054688 195.816406 167.039062 C 195.324219 168.507812 194.851562 169.949219 194.335938 171.390625 C 194.3125 171.492188 194.273438 171.578125 194.234375 171.664062 C 193.824219 173.359375 193.359375 175.101562 192.84375 176.933594 C 191.464844 182.097656 189.660156 186.847656 187.554688 189.882812 C 185.5 192.957031 183.519531 194.222656 183.21875 193.933594 C 182.855469 193.570312 184.136719 191.828125 185.5 188.742188 C 186.492188 186.597656 187.445312 183.738281 188.394531 180.453125 C 185.136719 182.511719 181.164062 182.597656 177.632812 182.613281 C 176.941406 182.636719 176.242188 182.636719 175.578125 182.648438 C 168.34375 182.875 161.90625 185.445312 157.90625 189.71875 C 153.421875 194.484375 152.21875 201.855469 155.074219 206.835938 C 156.917969 210.058594 160.1875 212.339844 163.359375 214.382812 C 170.023438 218.683594 177.082031 222.46875 184.347656 225.714844 C 189.511719 226.292969 194.710938 226.46875 199.898438 226.21875 C 202.195312 224.136719 203.785156 221.316406 204.4375 218.304688 C 202.984375 219.160156 201.578125 219.773438 200.3125 220.164062 C 196.980469 221.214844 194.8125 220.976562 194.75 220.589844 " fill-opacity="1" fill-rule="nonzero"/><path fill="#000000" d="M 253.085938 212.199219 C 252.945312 211.960938 252.820312 211.8125 252.746094 211.6875 C 251.855469 211.925781 250.878906 211.660156 250.1875 211.035156 C 247.832031 209.78125 245.917969 207.488281 244.488281 204.152344 C 244.136719 203.335938 243.8125 202.484375 243.496094 201.65625 C 242.894531 200.125 242.371094 198.660156 241.59375 197.445312 C 240.804688 196.191406 239.335938 194.785156 237.796875 194.824219 C 236.71875 194.859375 235.488281 195.652344 234.1875 196.464844 C 233.257812 197.054688 232.242188 197.695312 231.117188 198.171875 C 226.707031 203.949219 224.539062 211.585938 225.425781 218.757812 C 225.453125 218.859375 225.414062 218.957031 225.414062 219.058594 C 225.453125 219.472656 225.3125 219.886719 225.011719 220.226562 C 222.457031 222.808594 220.839844 226.230469 220.402344 229.816406 C 220.265625 231.070312 220.203125 233.3125 221.503906 234.394531 C 222.34375 235.105469 223.722656 235.234375 224.875 234.679688 C 226.027344 234.140625 226.980469 233.050781 227.570312 231.585938 C 228.222656 230.054688 228.398438 228.375 228.496094 226.90625 C 228.523438 226.355469 228.859375 225.890625 229.335938 225.679688 C 229.726562 225.265625 230.265625 224.964844 230.851562 224.851562 C 231.832031 224.664062 232.894531 224.9375 233.636719 225.605469 C 234.5 226.394531 234.976562 227.558594 235.050781 229.164062 C 235.078125 229.402344 235.078125 229.664062 235.078125 229.917969 C 235.101562 230.519531 235.113281 231.09375 235.25 231.546875 C 235.515625 232.363281 236.304688 233.113281 237.707031 233.902344 L 238.445312 234.304688 C 239.601562 234.917969 240.902344 235.609375 241.894531 236.738281 C 242.570312 237.488281 243.019531 238.316406 243.460938 239.132812 C 243.949219 240.058594 244.386719 240.863281 245.027344 241.339844 C 246.367188 242.304688 248.511719 241.613281 249.839844 240.484375 C 250.929688 239.546875 251.78125 238.316406 252.671875 237.039062 C 253.148438 236.335938 253.621094 235.648438 254.136719 234.996094 C 255.917969 232.738281 257.996094 231.382812 260.089844 231.03125 C 258.910156 228.511719 257.546875 226.082031 255.992188 223.761719 C 255.464844 223.195312 255.140625 222.40625 255.226562 221.578125 C 255.539062 218.320312 254.789062 214.996094 253.085938 212.199219 " fill-opacity="1" fill-rule="nonzero"/><path fill="#000000" d="M 336.144531 195.652344 C 337.382812 195.210938 339.1875 194.875 341.257812 195.160156 C 341.257812 195.136719 341.257812 195.113281 341.257812 195.113281 C 341.257812 195 341.195312 194.921875 341.195312 194.824219 C 341.167969 193.96875 341.15625 193.09375 340.957031 192.441406 C 340.816406 192.003906 340.59375 191.765625 340.515625 191.726562 C 340.453125 191.6875 340.101562 191.574219 338.9375 191.902344 C 337.171875 192.429688 335.53125 193.191406 334.039062 194.246094 C 333.585938 194.585938 333.074219 194.683594 332.558594 194.699219 C 331.054688 195.636719 329.527344 196.742188 328.125 198.144531 C 325.753906 200.554688 323.800781 203.738281 323.449219 207.5 C 323.324219 208.515625 323.222656 209.90625 322.296875 211.210938 C 321.320312 212.515625 320.078125 213.039062 319.164062 213.429688 C 317.359375 214.183594 315.753906 214.972656 314.226562 215.847656 C 311.179688 217.554688 308.660156 219.472656 306.644531 221.203125 C 302.621094 224.726562 300.578125 227.445312 300.152344 227.160156 C 299.8125 226.945312 301.179688 223.699219 305.003906 219.511719 C 306.917969 217.453125 309.464844 215.195312 312.648438 213.191406 C 314.226562 212.199219 316.019531 211.246094 317.835938 210.433594 C 319.703125 209.542969 319.878906 209.34375 320.140625 207.109375 C 320.328125 204.867188 321.105469 202.585938 322.15625 200.730469 C 323.222656 198.847656 324.550781 197.253906 325.980469 195.925781 C 326.429688 195.511719 326.90625 195.175781 327.382812 194.796875 C 327.558594 193.984375 327.960938 192.957031 328.410156 191.863281 C 328.648438 191.335938 328.875 190.796875 329.113281 190.320312 C 328.988281 187.351562 328.160156 184.378906 326.695312 181.796875 C 326.558594 181.785156 326.429688 181.796875 326.292969 181.746094 C 318.472656 179.300781 310.050781 178.613281 301.933594 179.738281 C 296.167969 180.554688 291.230469 182.210938 287.257812 184.667969 C 282.621094 187.550781 279.210938 191.589844 277.632812 196.066406 C 275.980469 200.730469 276.480469 205.882812 278.835938 209.707031 C 284.300781 210.808594 289.800781 211.546875 295.339844 211.886719 C 295.515625 210.734375 295.714844 209.542969 295.890625 208.300781 C 297.019531 200.414062 297.15625 193.871094 298.136719 193.796875 C 298.75 193.707031 299.640625 197.179688 299.652344 202.195312 C 300.464844 200.691406 301.292969 199.363281 302.109375 198.285156 C 304.085938 195.652344 305.742188 194.382812 306.066406 194.660156 C 306.820312 195.25 302.207031 201.679688 299.8125 210.796875 C 299.4375 212.199219 299.125 213.605469 298.824219 214.960938 C 298.824219 215.070312 298.824219 215.171875 298.800781 215.273438 C 296.917969 224.625 294.777344 235.246094 296.945312 245 C 297.472656 247.394531 298.273438 248.886719 299.3125 249.402344 C 300.015625 249.738281 301.117188 249.765625 302.484375 249.4375 C 307.484375 248.285156 312.171875 244.273438 316.40625 237.488281 C 317.558594 235.671875 318.648438 233.726562 319.703125 231.835938 C 322.019531 227.722656 324.4375 223.484375 327.695312 219.773438 C 328.222656 218.71875 329.363281 218.09375 330.59375 218.28125 C 332.222656 218.558594 333.964844 218.78125 335.492188 218.65625 C 335.390625 218.167969 335.265625 217.515625 335.015625 216.777344 C 334.777344 215.988281 334.300781 215.386719 333.585938 214.070312 C 333.25 213.417969 332.910156 212.476562 332.972656 211.410156 C 332.949219 210.484375 333.523438 209.253906 334.515625 208.550781 C 334.0625 207.9375 333.699219 207.160156 333.6875 206.121094 C 333.6875 205.304688 334.027344 204.414062 334.613281 203.800781 C 334.777344 203.636719 334.953125 203.535156 335.128906 203.398438 C 335.089844 203.386719 335.054688 203.335938 335.027344 203.296875 C 334.578125 202.710938 334.277344 201.917969 334.238281 201.167969 C 334.164062 199.976562 334.550781 198.824219 335.253906 197.894531 C 334.4375 197.820312 333.898438 197.65625 333.824219 197.355469 C 333.699219 196.917969 334.539062 196.214844 336.144531 195.652344 " fill-opacity="1" fill-rule="nonzero"/><path fill="#000000" d="M 341.769531 199.1875 C 341.132812 198.921875 340.480469 198.808594 339.867188 198.886719 C 339.226562 198.960938 338.574219 199.222656 338.148438 199.636719 C 337.722656 200.015625 337.507812 200.527344 337.507812 200.964844 C 337.523438 201.355469 337.648438 201.617188 338.125 201.96875 C 339.074219 202.671875 340.792969 202.785156 342.285156 203.523438 C 343 203.863281 343.710938 204.425781 344.0625 205.003906 C 344.125 205.105469 344.136719 205.191406 344.175781 205.265625 C 344.601562 204.175781 344.914062 203.0625 344.992188 202.019531 C 344.914062 201.894531 344.839844 201.78125 344.738281 201.644531 C 344.027344 200.691406 343.011719 199.699219 341.769531 199.1875 " fill-opacity="1" fill-rule="nonzero"/><g clip-path="url(#73a691140d)"><path fill="#000000" d="M 340.339844 151.480469 C 340.078125 151.96875 339.464844 152.53125 338.613281 152.882812 C 336.871094 153.699219 334.4375 153.398438 333.324219 154.074219 C 332.710938 154.425781 332.597656 154.589844 332.523438 155.089844 C 332.460938 155.617188 332.632812 156.21875 332.933594 156.769531 C 333.5625 157.898438 334.199219 158.789062 333.886719 159.164062 C 333.597656 159.492188 332.609375 159.429688 331.167969 158.339844 C 330.480469 157.773438 329.628906 156.785156 329.453125 155.304688 C 329.328125 154.5625 329.453125 153.636719 329.902344 152.847656 C 330.355469 152.054688 331.054688 151.480469 331.78125 151.105469 C 333.25 150.351562 334.691406 150.390625 335.667969 150.453125 C 336.695312 150.5 337.433594 150.601562 338.035156 150.601562 C 339.25 150.652344 339.992188 150.265625 340.378906 150.5 C 340.554688 150.652344 340.617188 151.003906 340.339844 151.480469 Z M 356.28125 144.972656 C 356.082031 142.753906 355.339844 140.835938 354.164062 139.582031 C 352.558594 137.863281 349.902344 137.011719 347.269531 136.359375 C 340.027344 134.527344 334.789062 134.628906 330.816406 136.671875 C 330.039062 137.074219 329.152344 137.046875 328.398438 136.710938 C 328.335938 136.699219 328.273438 136.699219 328.234375 136.671875 C 326.09375 136.082031 323.660156 136.335938 321.71875 137.386719 C 319.902344 138.378906 318.449219 140.09375 317.722656 142.039062 C 318.488281 141.523438 319.226562 141.085938 319.851562 140.761719 C 321.65625 139.808594 322.910156 139.445312 323.1875 139.820312 C 323.449219 140.195312 322.671875 141.25 321.242188 142.664062 C 319.851562 144.070312 317.835938 145.824219 315.917969 147.933594 C 314.425781 149.550781 313.261719 151.203125 312.433594 152.644531 C 311.59375 156.355469 312.070312 160.457031 313.9375 163.96875 C 316.683594 169.082031 322.296875 172.945312 328.574219 174.035156 C 328.6875 174.046875 328.8125 174.136719 328.914062 174.171875 C 335.152344 172.605469 341.066406 169.257812 347.808594 164.757812 C 349.992188 163.316406 351.871094 161.988281 353.109375 160.230469 C 354.703125 158.011719 355.277344 155.039062 355.769531 151.957031 C 356.144531 149.550781 356.480469 147.242188 356.28125 144.972656 " fill-opacity="1" fill-rule="nonzero"/></g><path fill="#000000" d="M 338.597656 211.722656 C 338.199219 211.472656 337.761719 211.273438 337.371094 211.210938 C 336.96875 211.136719 336.558594 211.183594 336.433594 211.273438 C 336.34375 211.324219 336.292969 211.308594 336.21875 211.625 C 336.179688 211.9375 336.242188 212.339844 336.417969 212.851562 C 336.769531 213.804688 337.382812 215.261719 337.347656 216.402344 C 337.347656 217.242188 337.234375 217.90625 337.03125 218.417969 C 337.621094 218.242188 338.148438 217.992188 338.597656 217.628906 C 339.5 216.863281 340.140625 215.5 340.679688 214.15625 C 340.417969 213.769531 340.078125 213.152344 339.550781 212.5 C 339.265625 212.226562 338.949219 211.9375 338.597656 211.722656 " fill-opacity="1" fill-rule="nonzero"/><g clip-path="url(#8d42a10592)"><path fill="#000000" d="M 91.941406 357.867188 L 92.578125 357.453125 C 93.582031 356.773438 94.082031 356.199219 94.121094 355.710938 C 94.160156 355.195312 93.683594 354.53125 93.195312 353.839844 L 92.792969 353.265625 C 91.503906 351.320312 90.875 348.964844 90.914062 346.632812 C 88.355469 348.261719 85.363281 349.164062 82.378906 349.164062 C 82.316406 349.164062 82.253906 349.164062 82.214844 349.164062 C 81.675781 349.164062 80.988281 349.101562 80.273438 348.925781 L 80.296875 348.949219 C 80.488281 350.71875 81.089844 352.4375 81.726562 354.253906 L 82.179688 355.609375 C 82.929688 357.902344 83.65625 360.625 83.242188 363.382812 C 82.765625 366.605469 80.738281 369.226562 78.019531 370.015625 C 76.828125 370.378906 75.597656 370.351562 74.507812 370.339844 C 73.894531 370.339844 73.320312 370.316406 72.792969 370.378906 C 72.730469 370.414062 72.691406 370.480469 72.628906 370.527344 C 71.601562 371.417969 70.523438 372.371094 70.585938 372.949219 C 70.625 373.222656 71.101562 373.6875 71.738281 373.902344 C 72.742188 374.238281 74.070312 374.175781 75.363281 374.113281 L 82.867188 373.738281 C 84.949219 372.195312 86.453125 369.875 86.851562 367.304688 C 86.929688 366.816406 86.964844 366.328125 87.015625 365.839844 C 87.128906 364.484375 87.242188 362.957031 88.003906 361.578125 C 88.90625 359.847656 90.511719 358.792969 91.941406 357.867188 " fill-opacity="1" fill-rule="nonzero"/></g><path fill="#000000" d="M 75.585938 367.355469 C 76.152344 367.355469 76.691406 367.320312 77.191406 367.179688 C 78.984375 366.628906 80.0625 364.660156 80.3125 362.957031 C 80.625 360.824219 79.996094 358.503906 79.347656 356.535156 L 78.90625 355.234375 C 78.257812 353.351562 77.578125 351.382812 77.339844 349.289062 L 77.304688 348.964844 C 77.242188 348.488281 77.203125 348.035156 77.066406 347.761719 C 76.726562 347.070312 75.535156 346.871094 74.683594 347.15625 C 73.746094 347.496094 72.867188 348.273438 72.089844 349.0625 C 73.242188 351.519531 74.359375 354.015625 75.398438 356.523438 C 76.238281 358.515625 77.980469 362.679688 76.152344 366.429688 C 75.976562 366.765625 75.773438 367.066406 75.585938 367.355469 " fill-opacity="1" fill-rule="nonzero"/><path fill="#000000" d="M 80.296875 337.628906 C 78.945312 339.910156 78.570312 342.40625 79.285156 344.351562 C 79.460938 344.824219 79.785156 345.464844 80.3125 345.804688 C 80.851562 346.128906 81.675781 346.191406 82.230469 346.191406 C 82.277344 346.191406 82.339844 346.191406 82.378906 346.191406 C 86.101562 346.191406 89.824219 344.449219 92.214844 341.589844 C 92.242188 341.578125 92.253906 341.554688 92.277344 341.542969 C 89.523438 339.082031 87.015625 336.125 84.671875 332.601562 C 83.003906 334.117188 81.402344 335.722656 80.296875 337.628906 " fill-opacity="1" fill-rule="nonzero"/><path fill="#000000" d="M 151.628906 208.816406 C 147.882812 202.269531 149.308594 193.09375 155.011719 187.011719 C 159.785156 181.898438 167.054688 178.949219 175.449219 178.6875 C 176.152344 178.660156 176.855469 178.660156 177.59375 178.648438 C 181.117188 178.625 184.449219 178.585938 186.765625 176.78125 C 187.21875 176.429688 187.59375 176.015625 187.957031 175.550781 C 176.566406 170.761719 165.425781 165.296875 154.648438 159.226562 C 150.613281 159.464844 146.953125 160.042969 143.070312 160.671875 C 141.980469 160.859375 140.863281 161.035156 139.722656 161.210938 C 122.390625 163.878906 105.476562 168.832031 89.460938 175.980469 C 85.074219 177.933594 80.488281 180.179688 76.628906 183.261719 C 74.03125 185.34375 70.726562 188.742188 69.082031 193.257812 C 69.121094 193.320312 69.144531 193.394531 69.160156 193.46875 C 73.003906 191.890625 75.914062 191.414062 76.136719 192.027344 C 76.453125 192.917969 71.738281 195.449219 66.074219 198.722656 C 63.019531 200.464844 60.3125 202.070312 58.34375 203.0625 C 56.5625 204.726562 54.820312 206.597656 53.15625 208.691406 C 49.15625 213.691406 45.886719 219.410156 42.742188 224.964844 C 50.148438 237.074219 60.359375 247.34375 72.429688 254.816406 C 75.585938 250.378906 78.832031 245.878906 83.132812 242.441406 C 83.28125 242.230469 83.445312 241.992188 83.605469 241.753906 C 87.367188 236.222656 88.332031 230.65625 89.308594 230.707031 C 89.722656 230.757812 90.074219 232.261719 89.796875 234.695312 C 89.660156 235.960938 89.285156 237.464844 88.695312 239.058594 C 92.179688 237.464844 95.839844 236.660156 99.410156 235.910156 C 101.488281 235.472656 103.433594 235.058594 105.335938 234.492188 C 115.726562 231.472656 124.621094 223.898438 129.359375 214.15625 C 127.042969 213.667969 124.921875 213.390625 123.246094 213.304688 C 120.800781 213.167969 119.195312 213.265625 119.085938 212.789062 C 118.945312 212.402344 120.386719 211.449219 123.082031 210.945312 C 125.75 210.433594 129.597656 210.597656 133.53125 211.761719 C 135.324219 212.277344 136.941406 212.929688 138.40625 213.628906 C 148.769531 217.292969 159.710938 221.003906 170.914062 223.460938 C 167.605469 221.640625 164.359375 219.75 161.214844 217.71875 C 157.78125 215.511719 153.921875 212.816406 151.628906 208.816406 " fill-opacity="1" fill-rule="nonzero"/><path fill="#000000" d="M 66.023438 337.152344 C 67.691406 340.148438 69.257812 343.183594 70.75 346.253906 C 71.578125 345.476562 72.554688 344.761719 73.71875 344.351562 C 74.472656 344.085938 75.324219 344.011719 76.152344 344.113281 C 75.636719 341.589844 76.175781 338.746094 77.71875 336.125 C 79.144531 333.703125 81.1875 331.761719 83.066406 330.019531 C 82.65625 329.355469 82.253906 328.652344 81.851562 327.9375 C 77.679688 332.5 72.054688 335.773438 66.023438 337.152344 " fill-opacity="1" fill-rule="nonzero"/><path fill="#000000" d="M 91.464844 328.867188 C 90.75 326.570312 89.070312 324.550781 86.929688 323.449219 C 86.4375 323.199219 85.925781 323.011719 85.410156 322.785156 C 87.390625 326.746094 89.484375 330.082031 91.738281 332.890625 C 91.941406 331.546875 91.867188 330.15625 91.464844 328.867188 " fill-opacity="1" fill-rule="nonzero"/><path fill="#000000" d="M 97.304688 345.378906 C 96.753906 345 96.203125 344.625 95.648438 344.25 C 95.285156 344 94.9375 343.699219 94.570312 343.421875 C 93.433594 346.054688 93.683594 349.226562 95.273438 351.621094 L 95.625 352.125 C 96.3125 353.113281 97.191406 354.34375 97.066406 355.921875 C 96.929688 357.867188 95.386719 359.132812 94.234375 359.910156 L 93.570312 360.347656 C 92.339844 361.164062 91.1875 361.914062 90.613281 362.980469 C 90.160156 363.832031 90.0625 364.925781 89.960938 366.089844 C 89.921875 366.640625 89.859375 367.207031 89.785156 367.757812 C 89.460938 369.851562 88.570312 371.84375 87.265625 373.523438 C 89.484375 373.386719 91.703125 373.160156 93.480469 372.257812 C 96.503906 370.667969 98.28125 367.207031 100.125 363.15625 C 102.316406 358.378906 104.246094 352.988281 101.964844 349.390625 C 100.976562 347.824219 99.195312 346.632812 97.304688 345.378906 " fill-opacity="1" fill-rule="nonzero"/><path fill="#000000" d="M 80.375 325.128906 C 79.785156 323.964844 79.207031 322.722656 78.632812 321.441406 C 78.558594 321.253906 78.496094 321.078125 78.40625 320.902344 C 74.445312 325.917969 68.683594 329.53125 62.441406 330.910156 C 63.144531 332.085938 63.855469 333.253906 64.535156 334.445312 C 70.648438 333.253906 76.339844 329.882812 80.375 325.128906 " fill-opacity="1" fill-rule="nonzero"/><path fill="#000000" d="M 70.273438 358.65625 C 69.960938 357.867188 69.621094 357.101562 69.285156 356.324219 C 68.332031 356.976562 67.589844 357.789062 67.078125 358.480469 C 66.3125 359.558594 65.710938 360.761719 65.199219 361.964844 C 65.324219 364.109375 65.398438 366.289062 65.535156 368.433594 C 65.574219 368.988281 65.613281 369.5625 65.710938 370.089844 C 66.515625 368.535156 67.855469 367.320312 68.96875 366.339844 C 69.859375 365.550781 70.800781 364.734375 71.164062 363.996094 C 71.789062 362.679688 71.125 360.660156 70.273438 358.65625 " fill-opacity="1" fill-rule="nonzero"/><path fill="#000000" d="M 68.066406 353.566406 C 66.925781 351.042969 65.738281 348.550781 64.484375 346.078125 C 64.609375 349.539062 64.722656 353.011719 64.910156 356.488281 C 65.835938 355.257812 66.902344 354.28125 68.066406 353.566406 " fill-opacity="1" fill-rule="nonzero"/></svg>